<svg width="24" height="24" viewBox="0 0 24 24" fill="none" xmlns="http://www.w3.org/2000/svg">
<g id="age-plus-18">
<g id="age-plus-18-outter">
<g id="age-vector-number-one-outter">
<path id="age-vector-number-one" d="M7.59209 16.0869V9.57113H6.0858V7.90138H9.67061V16.0869H7.59209Z" fill="url(#paint0_linear)"/>
</g>
<g id="age-vector-numbers-outter">
<path id="age-vector-number-eight" d="M17.4822 10.0148C17.4822 10.7271 17.0969 11.3576 16.4547 11.708C17.3537 12.0816 17.9143 12.864 17.9143 13.7748C17.9143 15.246 16.6064 16.1802 14.563 16.1802C12.5195 16.1802 11.2117 15.2577 11.2117 13.8099C11.2117 12.8757 11.8189 12.0816 12.7647 11.708C12.0758 11.3226 11.6321 10.6688 11.6321 9.95652C11.6321 8.6486 12.7765 7.81964 14.5513 7.81964C16.3495 7.81964 17.4822 8.67203 17.4822 10.0148ZM13.1734 13.5997C13.1734 14.2887 13.6639 14.674 14.563 14.674C15.4621 14.674 15.9642 14.3004 15.9642 13.5997C15.9642 12.9225 15.4621 12.537 14.563 12.537C13.6638 12.537 13.1734 12.9224 13.1734 13.5997ZM13.3836 10.1316C13.3836 10.7156 13.804 11.0424 14.563 11.0424C15.322 11.0424 15.7423 10.7155 15.7423 10.1316C15.7423 9.52456 15.322 9.18587 14.563 9.18587C13.8039 9.18587 13.3836 9.52456 13.3836 10.1316Z" fill="url(#paint1_linear)"/>
</g>
<g id="age-vector-circle-outter">
<path id="age-vector-circle" d="M21.3729 8.82543C21.7185 9.84531 21.8937 10.912 21.8937 12C21.8937 17.4553 17.4554 21.8935 12 21.8935C6.54463 21.8935 2.10625 17.4553 2.10625 12C2.10625 6.54457 6.54455 2.10645 12 2.10645C13.0881 2.10645 14.1548 2.2816 15.1746 2.6273V0.425611C14.1445 0.143257 13.0807 0 12 0C5.38323 0 0 5.38319 0 12C0 18.6168 5.38323 24 12 24C18.6168 24 24 18.6168 24 12C24 10.9194 23.8568 9.85553 23.5745 8.82543H21.3729V8.82543Z" fill="url(#paint2_linear)"/>
</g>
<g id="age-vector-plus-outter">
<path id="age-vector-plus" d="M20.7741 3.21915V0.918213H19.1195V3.21915H16.8324V4.87357H19.1195V7.17444H20.7741V4.87357H23.0749V3.21915H20.7741Z" fill="url(#paint3_linear)"/>
</g>
</g>
</g>
<defs>
<linearGradient id="paint0_linear" x1="7.8782" y1="7.90138" x2="7.8782" y2="16.0869" gradientUnits="userSpaceOnUse">
<stop stop-color="#FF655B"/>
<stop offset="1" stop-color="#FD297B"/>
</linearGradient>
<linearGradient id="paint1_linear" x1="14.563" y1="7.81964" x2="14.563" y2="16.1802" gradientUnits="userSpaceOnUse">
<stop stop-color="#FD297B"/>
<stop offset="1" stop-color="#FF655B" stop-opacity="0.53"/>
</linearGradient>
<linearGradient id="paint2_linear" x1="12" y1="0" x2="12" y2="24" gradientUnits="userSpaceOnUse">
<stop stop-color="#FF655B"/>
<stop offset="1" stop-color="#FD297B" stop-opacity="0.87"/>
</linearGradient>
<linearGradient id="paint3_linear" x1="19.9536" y1="0.918213" x2="19.9536" y2="7.17444" gradientUnits="userSpaceOnUse">
<stop offset="0.192708" stop-color="#FD297B"/>
<stop offset="0.96875" stop-color="#FF655B" stop-opacity="0.48"/>
</linearGradient>
</defs>
</svg>
