<svg width="24" height="28" viewBox="0 0 24 28" fill="none" xmlns="http://www.w3.org/2000/svg">
<path id="bell" fill-rule="evenodd" clip-rule="evenodd" d="M11.4377 0.0722426C10.9885 0.18753 10.6522 0.384401 10.3135 0.730483C9.76151 1.2945 9.59751 1.79953 9.59655 2.93819L9.59597 3.63314L9.1831 3.78996C6.67111 4.744 4.75903 6.85283 4.04176 9.46045C3.80638 10.3161 3.77624 10.6359 3.7295 12.7708C3.68048 15.0102 3.63577 15.4679 3.34747 16.683C3.01852 18.0695 2.41776 19.472 1.63241 20.687C1.28836 21.2193 0.978726 21.6221 0.188308 22.5659C-0.133706 22.9504 -0.0177257 23.5665 0.419736 23.7955C0.62881 23.9049 0.710221 23.9056 11.9978 23.9056C23.2855 23.9056 23.3669 23.9049 23.576 23.7955C23.7115 23.7246 23.8248 23.6083 23.894 23.4693C24.0948 23.0656 24.016 22.7719 23.5781 22.2915C22.2175 20.7986 21.1378 18.7326 20.6473 16.683C20.3596 15.4812 20.3142 15.0153 20.2659 12.7708C20.2198 10.6329 20.1905 10.3224 19.9528 9.45454C19.2411 6.85567 17.239 4.66252 14.7587 3.76451L14.3985 3.63413V2.93868C14.3985 1.80829 14.2327 1.29806 13.6807 0.729224C13.0791 0.10934 12.2451 -0.134914 11.4377 0.0722426ZM12.3727 1.74613C12.6935 1.914 12.7981 2.17226 12.7981 2.79652V3.30484H11.9978H11.1976L11.1999 2.78503C11.2025 2.17161 11.2848 1.9633 11.6027 1.76594C11.8581 1.60737 12.0957 1.60124 12.3727 1.74613ZM3.6521 2.94639C3.48095 3.06212 2.83511 3.78487 2.47618 4.26238C1.13685 6.04412 0.250726 8.363 0.050721 10.6095C-0.065313 11.9126 0.00174663 12.2504 0.419736 12.4691C0.686374 12.6087 0.902757 12.6087 1.1694 12.4691C1.45172 12.3214 1.5948 12.0298 1.5948 11.6024C1.5948 11.1148 1.69328 10.2124 1.81364 9.59724C2.14781 7.88899 3.02914 6.06578 4.13682 4.79111C4.81665 4.00888 4.84914 3.9563 4.84871 3.63867C4.84834 3.32525 4.73759 3.10775 4.49479 2.9436C4.28823 2.80391 3.86074 2.80533 3.6521 2.94639ZM19.5009 2.9436C19.257 3.10852 19.1473 3.32503 19.147 3.64255C19.1465 3.95717 19.157 3.97381 19.8834 4.82022C20.9831 6.10173 21.8511 7.90563 22.1821 9.59724C22.3024 10.2124 22.4009 11.1148 22.4009 11.6024C22.4009 12.1765 22.7308 12.5793 23.2011 12.5793C23.4658 12.5793 23.7732 12.3858 23.894 12.143C24.0178 11.8939 24.0298 11.5579 23.9475 10.6369C23.7423 8.34084 22.8287 5.96718 21.4737 4.20892C21.0494 3.65842 20.5493 3.09834 20.361 2.96286C20.1404 2.80413 19.721 2.79477 19.5009 2.9436ZM8.37012 25.6109C8.37012 25.7655 8.87485 26.4832 9.23255 26.8372C9.95015 27.5475 10.7504 27.9166 11.7311 27.9893C12.9108 28.0768 14.0358 27.6261 14.8604 26.7357C15.2084 26.36 15.6256 25.7454 15.6256 25.6083C15.6256 25.5638 14.6383 25.5471 11.9978 25.5471C9.27049 25.5471 8.37012 25.5629 8.37012 25.6109Z" fill="url(#paint0_linear_1:5)"/>
<defs>
<linearGradient id="paint0_linear_1:5" x1="12" y1="0" x2="12" y2="28" gradientUnits="userSpaceOnUse">
<stop stop-color="#FD297B" stop-opacity="0.95"/>
<stop offset="1" stop-color="#FF655B" stop-opacity="0.8"/>
</linearGradient>
</defs>
</svg>
