<svg width="36" height="36" viewBox="0 0 36 36" fill="none" xmlns="http://www.w3.org/2000/svg">
<g id="briefcase">
<path id="Vector" d="M18 36C14.4399 36 10.9598 34.9443 7.99974 32.9665C5.03966 30.9886 2.73255 28.1774 1.37018 24.8883C0.00779919 21.5992 -0.348661 17.98 0.345873 14.4884C1.04041 10.9967 2.75474 7.78943 5.27208 5.27208C7.78943 2.75474 10.9967 1.04041 14.4884 0.345873C17.98 -0.348661 21.5992 0.00779919 24.8883 1.37018C28.1774 2.73255 30.9886 5.03966 32.9665 7.99974C34.9443 10.9598 36 14.4399 36 18C35.9946 22.7722 34.0964 27.3474 30.7219 30.7219C27.3474 34.0964 22.7722 35.9946 18 36V36ZM18 1.02858C14.6434 1.02858 11.3621 2.02394 8.57119 3.88878C5.78025 5.75362 3.60498 8.4042 2.32045 11.5053C1.03593 14.6064 0.699834 18.0188 1.35468 21.311C2.00953 24.6031 3.6259 27.6271 5.99939 30.0006C8.37289 32.3741 11.3969 33.9905 14.689 34.6453C17.9812 35.3002 21.3936 34.9641 24.4947 33.6796C27.5958 32.395 30.2464 30.2198 32.1112 27.4288C33.9761 24.6379 34.9714 21.3566 34.9714 18C34.9664 13.5004 33.1767 9.18663 29.9951 6.00496C26.8134 2.82329 22.4996 1.03362 18 1.02858V1.02858Z" fill="white"/>
<g id="portfolio 1">
<path id="portofolio4" d="M24.8571 25H11.1429C10.8399 24.9995 10.5494 24.8515 10.3351 24.5884C10.1209 24.3253 10.0004 23.9686 10 23.5965V12.6491C10.0004 12.277 10.1209 11.9203 10.3351 11.6572C10.5494 11.3941 10.8399 11.2461 11.1429 11.2456H24.8571C25.1601 11.2461 25.4506 11.3941 25.6649 11.6572C25.8791 11.9203 25.9996 12.277 26 12.6491V23.5965C25.9996 23.9686 25.8791 24.3253 25.6649 24.5884C25.4506 24.8515 25.1601 24.9995 24.8571 25ZM11.1429 11.807C10.961 11.807 10.7866 11.8957 10.658 12.0537C10.5294 12.2116 10.4571 12.4258 10.4571 12.6491V23.5965C10.4571 23.8198 10.5294 24.034 10.658 24.1919C10.7866 24.3499 10.961 24.4386 11.1429 24.4386H24.8571C25.039 24.4386 25.2134 24.3499 25.342 24.1919C25.4706 24.034 25.5429 23.8198 25.5429 23.5965V12.6491C25.5429 12.4258 25.4706 12.2116 25.342 12.0537C25.2134 11.8957 25.039 11.807 24.8571 11.807H11.1429Z" fill="white"/>
<path id="portofolio3" d="M23.6 19.1053H19.2571V18.5439H23.6C24.1151 18.5431 24.6089 18.2915 24.9731 17.8442C25.3374 17.3969 25.5423 16.7905 25.5429 16.1579V12.6491C25.5429 12.4258 25.4706 12.2116 25.342 12.0537C25.2134 11.8957 25.039 11.807 24.8571 11.807H11.1429C10.961 11.807 10.7866 11.8957 10.658 12.0537C10.5294 12.2116 10.4571 12.4258 10.4571 12.6491V16.1579C10.4577 16.7905 10.6626 17.3969 11.0269 17.8442C11.3911 18.2915 11.8849 18.5431 12.4 18.5439H16.7429V19.1053H12.4C11.7637 19.1044 11.1537 18.7936 10.7037 18.241C10.2538 17.6885 10.0007 16.9393 10 16.1579V12.6491C10.0004 12.277 10.1209 11.9203 10.3351 11.6572C10.5494 11.3941 10.8399 11.2461 11.1429 11.2456H24.8571C25.1601 11.2461 25.4506 11.3941 25.6649 11.6572C25.8791 11.9203 25.9996 12.277 26 12.6491V16.1579C25.9993 16.9393 25.7462 17.6885 25.2963 18.241C24.8463 18.7936 24.2363 19.1044 23.6 19.1053Z" fill="white"/>
<path id="portofolio2" d="M19.0286 21.2281H16.9714C16.8502 21.2281 16.7339 21.1689 16.6482 21.0636C16.5624 20.9584 16.5143 20.8156 16.5143 20.6667V18.9825C16.5143 18.8336 16.5624 18.6908 16.6482 18.5855C16.7339 18.4802 16.8502 18.4211 16.9714 18.4211H19.0286C19.1498 18.4211 19.2661 18.4802 19.3518 18.5855C19.4375 18.6908 19.4857 18.8336 19.4857 18.9825V20.6667C19.4857 20.8156 19.4375 20.9584 19.3518 21.0636C19.2661 21.1689 19.1498 21.2281 19.0286 21.2281ZM19.0286 18.9825H16.9714V20.6667H19.0286V18.9825Z" fill="white"/>
<path id="portofolio1" d="M20.2857 12.807H15.7143C15.6537 12.807 15.5955 12.7774 15.5527 12.7248C15.5098 12.6722 15.4857 12.6008 15.4857 12.5263V11.4035C15.4861 11.0314 15.6066 10.6747 15.8208 10.4116C16.0351 10.1485 16.3256 10.0004 16.6286 10H19.3714C19.6744 10.0004 19.9649 10.1485 20.1791 10.4116C20.3934 10.6747 20.5139 11.0314 20.5143 11.4035V12.5263C20.5143 12.6008 20.4902 12.6722 20.4473 12.7248C20.4045 12.7774 20.3463 12.807 20.2857 12.807ZM15.9429 12.2456H20.0571V11.4035C20.0571 11.1802 19.9849 10.966 19.8563 10.8081C19.7277 10.6501 19.5533 10.5614 19.3714 10.5614H16.6286C16.4467 10.5614 16.2723 10.6501 16.1437 10.8081C16.0151 10.966 15.9429 11.1802 15.9429 11.4035V12.2456Z" fill="white"/>
</g>
</g>
</svg>
