<svg width="24" height="24" viewBox="0 0 24 24" fill="none" xmlns="http://www.w3.org/2000/svg">
<g id="briefcase">
<g id="case">
<path id="caseIcon" d="M12 0C5.39203 0 0 5.39297 0 12C0 18.608 5.39297 24 12 24C18.608 24 24 18.607 24 12C24 5.39203 18.607 0 12 0ZM12 22.5938C6.15858 22.5938 1.40625 17.8414 1.40625 12C1.40625 6.15858 6.15858 1.40625 12 1.40625C17.8414 1.40625 22.5938 6.15858 22.5938 12C22.5938 17.8414 17.8414 22.5938 12 22.5938Z" fill="white"/>
</g>
<path id="briefcaseCircle" d="M16.5351 7.96036H14.0418V6.80526C14.0418 6.14772 13.6498 5.6129 13.1678 5.6129H10.7456C10.2636 5.6129 9.87152 6.14772 9.87152 6.80526V7.96036H7.37827C6.74967 7.96036 6.23827 8.65801 6.23827 9.51553V16.9287C6.23827 17.7862 6.74967 18.4839 7.37827 18.4839H16.5351C17.1637 18.4839 17.6751 17.7862 17.6751 16.9287V9.51553C17.6751 8.65801 17.1637 7.96036 16.5351 7.96036V7.96036ZM10.5505 6.80526C10.5505 6.65849 10.638 6.5391 10.7456 6.5391H13.1678C13.2754 6.5391 13.3629 6.65849 13.3629 6.80526V7.96036H10.5505V6.80526ZM6.91721 9.51553C6.91721 9.16879 7.12409 8.88656 7.37827 8.88656H16.5351C16.7893 8.88656 16.9962 9.16879 16.9962 9.51553V10.891H6.91721V9.51553ZM10.7455 11.8172H13.1679V12.2115C13.1679 12.6331 12.9165 12.9761 12.6073 12.9761H11.3059C10.9969 12.9761 10.7455 12.6331 10.7455 12.2115V11.8172ZM16.9962 16.9287C16.9962 17.2756 16.7893 17.5577 16.5351 17.5577H7.37827C7.12409 17.5577 6.91721 17.2756 6.91721 16.9287V11.8172H10.0665V12.2115C10.0665 13.1438 10.6225 13.9023 11.3059 13.9023H12.6073C13.2908 13.9023 13.8468 13.1438 13.8468 12.2115V11.8172H16.9962V16.9287Z" fill="#fd297b"/>
</g>
</svg>