<svg width="24" height="24" viewBox="0 0 24 24" fill="none" xmlns="http://www.w3.org/2000/svg">
<g id="closeCross">
<g id="mainCrossIcon">
<path id="forwardVector" d="M1.55543 24C1.15739 24 0.759067 23.8477 0.456123 23.5444C-0.152041 22.9365 -0.152041 21.9537 0.456123 21.3458L21.3453 0.455919C21.9531 -0.151973 22.936 -0.151973 23.5439 0.455919C24.152 1.06381 24.152 2.04669 23.5439 2.65458L2.65474 23.5444C2.3498 23.8491 1.95347 24 1.55543 24Z" fill="url(#paint0_linear)"/>
<path id="backwardVector" d="M22.4446 24C22.0465 24 21.6485 23.8477 21.3453 23.5444L0.456123 2.65458C-0.152041 2.04669 -0.152041 1.06381 0.456123 0.455919C1.064 -0.151973 2.04658 -0.151973 2.65474 0.455919L23.5439 21.3458C24.152 21.9537 24.152 22.9365 23.5439 23.5444C23.2406 23.8491 22.8426 24 22.4446 24V24Z" fill="url(#paint1_linear)"/>
</g>
</g>
<defs>
<linearGradient id="paint0_linear" x1="12" y1="0" x2="12" y2="24" gradientUnits="userSpaceOnUse">
<stop stop-color="#F44336" stop-opacity="0.6"/>
<stop offset="0.505208" stop-color="#F44336"/>
<stop offset="0.963542" stop-color="#FF655B" stop-opacity="0.67"/>
</linearGradient>
<linearGradient id="paint1_linear" x1="12" y1="0" x2="12" y2="24" gradientUnits="userSpaceOnUse">
<stop stop-color="#F44336" stop-opacity="0.6"/>
<stop offset="0.505208" stop-color="#F44336"/>
<stop offset="0.963542" stop-color="#FF655B" stop-opacity="0.67"/>
</linearGradient>
</defs>
</svg>
