<svg width="28" height="28" viewBox="0 0 24 24" fill="none" xmlns="http://www.w3.org/2000/svg">
<path id="conversion-settings" fill-rule="evenodd" clip-rule="evenodd" d="M19.0366 0.891118L18.0638 1.78224L17.4999 1.50521C15.6579 0.600259 13.7161 0.183522 11.6337 0.246296C8.99868 0.325728 6.54717 1.18541 4.46884 2.7589C2.08277 4.56537 0.439226 7.38625 0.0815183 10.2891C-0.227312 12.7955 0.347023 15.3426 1.70806 17.5027C1.91398 17.8294 2.34971 18.4437 2.48345 18.5957C2.50006 18.6146 3.07628 18.0956 3.76398 17.4424L5.01438 16.2548L4.83884 16.0073C4.55609 15.6087 4.13889 14.7825 3.95037 14.2477C3.42591 12.7599 3.35804 11.1925 3.75298 9.6912C4.50716 6.82467 6.90786 4.5282 9.89721 3.81369C11.3289 3.47149 12.8589 3.48212 14.2096 3.84361C14.7306 3.98309 15.4241 4.22736 15.4241 4.27141C15.4241 4.28821 15.1102 4.60057 14.7265 4.96545L14.0288 5.62891L16.9934 5.65865C18.624 5.67503 19.9754 5.67197 19.9966 5.65187C20.0177 5.63178 20.0293 4.35188 20.0223 2.80766L20.0095 0L19.0366 0.891118ZM20.7716 6.58972C20.0525 7.16367 19.4459 7.64892 19.4234 7.66803C19.401 7.68718 19.4715 7.86962 19.5801 8.07352C20.5249 9.84724 20.7552 11.7743 20.2524 13.6997C19.5125 16.5325 17.1798 18.7897 14.2096 19.5466C12.8232 19.9 11.198 19.9074 9.85924 19.5664C9.64762 19.5126 9.46436 19.4529 9.45196 19.4338C9.43957 19.4148 9.74032 19.0319 10.1203 18.5829C10.5003 18.134 10.8063 17.7621 10.8002 17.7565C10.7785 17.7364 4.90071 18.3476 4.87429 18.3726C4.84544 18.4 5.45789 23.9578 5.49388 23.9952C5.50563 24.0073 5.53076 23.9957 5.5497 23.9693C5.56868 23.9429 5.90765 23.5422 6.30299 23.0789C6.69832 22.6156 7.03694 22.2154 7.05548 22.1897C7.07625 22.1608 7.26685 22.2094 7.55119 22.316C9.23459 22.9469 10.6087 23.1815 12.3507 23.1354C14.104 23.0891 15.5929 22.7499 17.1467 22.043C19.3679 21.0324 21.0932 19.5383 22.329 17.555C23.4416 15.7697 24 13.8282 24 11.7456C24 9.66075 23.4481 7.7349 22.3391 5.95017C22.2105 5.74312 22.0993 5.5675 22.0921 5.55997C22.085 5.55239 21.4907 6.01581 20.7716 6.58972ZM11.3481 7.13191L11.3345 7.86656L10.9627 7.96919C10.5855 8.07328 9.94213 8.3512 9.88884 8.43308C9.87278 8.45774 9.61114 8.24269 9.30741 7.95517L8.75519 7.43241L8.19825 7.96261L7.64137 8.4928L8.18259 9.00497L8.72381 9.51713L8.60717 9.69256C8.44561 9.93547 8.34003 10.1728 8.21 10.5853L8.09871 10.9382L7.3248 10.9511L6.55084 10.9641V11.6911V12.4181L7.3248 12.4311L8.09871 12.444L8.20762 12.797C8.31088 13.1317 8.58446 13.7089 8.68643 13.8071C8.71662 13.8362 8.53623 14.0406 8.18754 14.3726L7.64137 14.8925L8.19989 15.4212L8.75841 15.9498L9.30013 15.434C9.65773 15.0935 9.86018 14.9326 9.89593 14.9608C10.0306 15.0669 10.6248 15.3184 10.9627 15.4123L11.3345 15.5157L11.3481 16.2503L11.3618 16.985H12.1276H12.8935L12.9071 16.2503L12.9208 15.5157L13.2926 15.413C13.6698 15.309 14.3131 15.031 14.3664 14.9492C14.3825 14.9245 14.6441 15.1395 14.9479 15.4271L15.5001 15.9498L16.057 15.4196L16.6139 14.8894L16.0739 14.3784L15.5338 13.8673L15.6951 13.6132C15.8243 13.4096 16.0589 12.8238 16.1492 12.4793C16.1607 12.4354 16.3598 12.4205 16.9345 12.4205H17.7044V11.6911V10.9617H16.9345C16.3611 10.9617 16.1601 10.9467 16.1468 10.9029C15.9891 10.3795 15.8324 9.98672 15.6992 9.7807L15.535 9.5265L16.0744 9.00812L16.6139 8.48974L16.0554 7.96105L15.4969 7.43241L14.9585 7.94505L14.4201 8.45769L14.1469 8.30142C13.9255 8.17483 13.5066 8.02486 12.958 7.87579C12.9118 7.86322 12.896 7.67241 12.896 7.12805V6.39721H12.1289H11.3618L11.3481 7.13191ZM12.4598 10.1205C12.8179 10.1925 13.0637 10.3185 13.3186 10.5605C13.5852 10.8135 13.7138 11.0479 13.784 11.4085C13.9764 12.3964 13.1947 13.2794 12.1276 13.2794C11.6585 13.2794 11.2825 13.1397 10.9674 12.8483C10.6748 12.5778 10.542 12.3429 10.4707 11.9692C10.3706 11.4452 10.5378 10.9391 10.936 10.5611C11.1871 10.3227 11.3896 10.2139 11.7311 10.1338C12.0522 10.0584 12.1431 10.0568 12.4598 10.1205Z" fill="url(#paint0_linear_1_4)"/>
<defs>
<linearGradient id="paint0_linear_1_4" x1="12" y1="0" x2="20.2999" y2="25.908" gradientUnits="userSpaceOnUse">
<stop stop-color="#FD297B" stop-opacity="0.95"/>
<stop offset="1" stop-color="#FF655B" stop-opacity="0.67"/>
</linearGradient>
</defs>
</svg>
