<svg width="28" height="28" viewBox="0 0 32 32" fill="none" xmlns="http://www.w3.org/2000/svg">
<g id="default" filter="url(#filter0_i_1_4)">
<path fill-rule="evenodd" clip-rule="evenodd" d="M12.6092 0.0720099C12.3461 0.167269 12.1029 0.346207 11.9188 0.580223C11.6729 0.892662 11.6165 1.25048 11.6165 2.49954C11.6165 3.23107 11.5931 3.67876 11.5549 3.67876C11.521 3.67876 11.2323 3.79123 10.9133 3.92867L10.3334 4.17852L9.45638 3.30899C8.97401 2.83076 8.48074 2.38958 8.36019 2.32849C8.03988 2.16639 7.46289 2.18097 7.10776 2.36016C6.71657 2.55762 2.54185 6.73011 2.34428 7.12109C2.165 7.47603 2.15041 8.05271 2.3126 8.37285C2.37371 8.49333 2.81513 8.98634 3.29362 9.46845L4.16362 10.345L3.91364 10.9246C3.77612 11.2434 3.66359 11.532 3.66359 11.5658C3.66359 11.604 3.21616 11.6274 2.48518 11.6274C1.11816 11.6274 0.805737 11.6902 0.448921 12.0366C-0.0251857 12.4968 0.000238541 12.2714 0.000238541 16.0086C0.000238541 19.7457 -0.0251857 19.5204 0.448921 19.9806C0.805737 20.3269 1.11816 20.3897 2.48518 20.3897C3.21616 20.3897 3.66359 20.4131 3.66359 20.4513C3.66359 20.4852 3.77612 20.7737 3.91364 21.0925L4.16362 21.6721L3.29362 22.5487C2.81513 23.0308 2.37371 23.5238 2.3126 23.6443C2.15041 23.9644 2.165 24.5411 2.34428 24.896C2.54185 25.287 6.71657 29.4595 7.10776 29.657C7.46289 29.8362 8.03988 29.8507 8.36019 29.6886C8.48074 29.6276 8.97401 29.1864 9.45638 28.7081L10.3334 27.8386L10.9133 28.0885C11.2323 28.2259 11.521 28.3384 11.5549 28.3384C11.5931 28.3384 11.6165 28.7856 11.6165 29.5161C11.6165 30.8824 11.6793 31.1947 12.0259 31.5513C12.4863 32.0252 12.2609 31.9998 16 31.9998C19.7391 31.9998 19.5137 32.0252 19.9741 31.5513C20.3207 31.1947 20.3835 30.8824 20.3835 29.5161C20.3835 28.7856 20.4069 28.3384 20.4451 28.3384C20.479 28.3384 20.7677 28.2259 21.0867 28.0885L21.6666 27.8386L22.5436 28.7081C23.026 29.1864 23.5193 29.6276 23.6398 29.6886C23.9601 29.8507 24.5371 29.8362 24.8922 29.657C25.2834 29.4595 29.4581 25.287 29.6557 24.896C29.835 24.5411 29.8496 23.9644 29.6874 23.6443C29.6263 23.5238 29.1849 23.0308 28.7064 22.5487L27.8364 21.6721L28.0864 21.0925C28.2239 20.7737 28.3364 20.4852 28.3364 20.4513C28.3364 20.4131 28.7838 20.3897 29.5148 20.3897C30.8818 20.3897 31.1943 20.3269 31.5511 19.9806C32.0252 19.5204 31.9998 19.7457 31.9998 16.0086C31.9998 12.2714 32.0252 12.4968 31.5511 12.0366C31.1943 11.6902 30.8818 11.6274 29.5148 11.6274C28.7838 11.6274 28.3364 11.604 28.3364 11.5658C28.3364 11.532 28.2239 11.2434 28.0864 10.9246L27.8364 10.345L28.7064 9.46845C29.1849 8.98634 29.6263 8.49333 29.6874 8.37285C29.8496 8.05271 29.835 7.47603 29.6557 7.12109C29.4581 6.73011 25.2834 2.55762 24.8922 2.36016C24.5371 2.18097 23.9601 2.16639 23.6398 2.32849C23.5193 2.38958 23.026 2.83076 22.5436 3.30899L21.6666 4.17852L21.0867 3.92867C20.7677 3.79123 20.479 3.67876 20.4451 3.67876C20.4069 3.67876 20.3835 3.23157 20.3835 2.50098C20.3835 1.13469 20.3207 0.822438 19.9741 0.465813C19.5158 -0.00584935 19.7241 0.018998 16.0939 0.00335105C13.5247 -0.00766442 12.7894 0.00679338 12.6092 0.0720099ZM17.4514 4.00735C17.4775 5.20503 17.5092 5.32119 17.9284 5.75862C18.1162 5.95452 18.279 6.03325 18.9391 6.24755C19.3718 6.388 20.127 6.69794 20.6171 6.93627C21.6514 7.43923 21.8577 7.48761 22.3528 7.34378C22.6721 7.25102 22.7925 7.15965 23.4913 6.48L24.2727 5.72L25.2834 6.73017L26.2941 7.74034L25.5337 8.52131C24.8537 9.21966 24.7622 9.34008 24.6694 9.65915C24.5245 10.1575 24.577 10.3812 25.0793 11.404C25.3172 11.8883 25.6266 12.6385 25.7668 13.0711C25.9809 13.7314 26.0592 13.8933 26.2554 14.0812C26.6931 14.5002 26.8093 14.5319 28.0076 14.5579L29.0879 14.5814V16.0086V17.4357L28.0076 17.4592C26.8093 17.4853 26.6931 17.5169 26.2554 17.936C26.0592 18.1238 25.9809 18.2858 25.7668 18.9461C25.6266 19.3786 25.3172 20.1288 25.0793 20.6132C24.577 21.6359 24.5245 21.8596 24.6694 22.358C24.7622 22.6771 24.8537 22.7975 25.5337 23.4958L26.2941 24.2768L25.2834 25.287L24.2727 26.2971L23.4913 25.5371C22.7925 24.8575 22.6721 24.7661 22.3528 24.6734C21.8577 24.5295 21.6514 24.5779 20.6171 25.0809C20.127 25.3192 19.3718 25.6291 18.9391 25.7696C18.279 25.9839 18.1162 26.0626 17.9284 26.2585C17.5092 26.6959 17.4775 26.8121 17.4514 28.0098L17.4279 29.0894H16H14.5721L14.5486 28.0098C14.5225 26.8121 14.4908 26.6959 14.0716 26.2585C13.8836 26.0624 13.7216 25.9841 13.0609 25.7701C12.6282 25.63 11.8775 25.3208 11.3929 25.0831C10.3696 24.581 10.1458 24.5285 9.64719 24.6734C9.32794 24.7661 9.20746 24.8575 8.50873 25.5371L7.72734 26.2971L6.71663 25.287L5.70592 24.2768L6.46633 23.4958C7.14634 22.7975 7.23777 22.6771 7.33057 22.358C7.47554 21.8596 7.423 21.6359 6.92065 20.6132C6.68275 20.1288 6.3734 19.3786 6.23319 18.9461C6.01909 18.2858 5.94075 18.1238 5.74456 17.936C5.3069 17.5169 5.19067 17.4853 3.99235 17.4592L2.91213 17.4357V16.0086V14.5814L3.99235 14.5579C5.19067 14.5319 5.3069 14.5002 5.74456 14.0812C5.94075 13.8933 6.01909 13.7314 6.23319 13.0711C6.3734 12.6385 6.68275 11.8883 6.92065 11.404C7.423 10.3812 7.47554 10.1575 7.33057 9.65915C7.23777 9.34008 7.14634 9.21966 6.46633 8.52131L5.70592 7.74034L6.71663 6.73017L7.72734 5.72L8.50873 6.48C9.20746 7.15965 9.32794 7.25102 9.64719 7.34378C10.1458 7.48867 10.3696 7.43616 11.3929 6.93408C11.8775 6.69631 12.6282 6.38712 13.0609 6.24699C13.7216 6.033 13.8836 5.9547 14.0716 5.75862C14.4908 5.32119 14.5225 5.20503 14.5486 4.00735L14.5721 2.92771H16H17.4279L17.4514 4.00735ZM18.5049 12.5711C18.3 12.6635 17.7491 13.1706 16.4881 14.4273L14.7532 16.1564L14.2241 15.6487C13.5737 15.0247 13.2897 14.8695 12.7979 14.8695C12.1907 14.8695 11.6762 15.2021 11.4504 15.7406C11.3288 16.0307 11.3463 16.6176 11.4855 16.9161C11.5584 17.0724 12.0461 17.6042 12.7835 18.3315C13.7295 19.2646 14.0241 19.5187 14.2627 19.6076C14.6051 19.7352 15.0529 19.7088 15.3861 19.5415C15.6715 19.3981 20.1647 14.9172 20.3722 14.569C20.6915 14.0332 20.568 13.2561 20.0918 12.8043C19.6982 12.4309 19.0321 12.333 18.5049 12.5711Z" fill="url(#paint0_linear_1_4)"/>
</g>
<defs>
<filter id="filter0_i_1_4" x="0" y="0" width="32" height="36" filterUnits="userSpaceOnUse" color-interpolation-filters="sRGB">
<feFlood flood-opacity="0" result="BackgroundImageFix"/>
<feBlend mode="normal" in="SourceGraphic" in2="BackgroundImageFix" result="shape"/>
<feColorMatrix in="SourceAlpha" type="matrix" values="0 0 0 0 0 0 0 0 0 0 0 0 0 0 0 0 0 0 127 0" result="hardAlpha"/>
<feOffset dy="4"/>
<feGaussianBlur stdDeviation="2"/>
<feComposite in2="hardAlpha" operator="arithmetic" k2="-1" k3="1"/>
<feColorMatrix type="matrix" values="0 0 0 0 0 0 0 0 0 0 0 0 0 0 0 0 0 0 0.25 0"/>
<feBlend mode="normal" in2="shape" result="effect1_innerShadow_1_4"/>
</filter>
<linearGradient id="paint0_linear_1_4" x1="5.69855" y1="8.32418" x2="26.4796" y2="25.8598" gradientUnits="userSpaceOnUse">
<stop offset="0.520231" stop-color="#68FF5B"/>
<stop offset="0.626275" stop-color="#FD297B" stop-opacity="0.71"/>
</linearGradient>
</defs>
</svg>
