<svg width="24" height="24" viewBox="0 0 24 24" fill="none" xmlns="http://www.w3.org/2000/svg">
<g id="gender">
<path id="genderFemale" d="M13.9279 10.2164C13.928 8.67198 13.539 7.16055 12.8077 5.86459C12.0764 4.56862 11.0341 3.54353 9.80676 2.91308C8.5794 2.28263 7.21941 2.07377 5.89099 2.31173C4.56256 2.54969 3.3225 3.22428 2.32052 4.25407C1.31855 5.28385 0.597493 6.6248 0.24442 8.115C-0.108653 9.60521 -0.0786491 11.181 0.330809 12.652C0.740267 14.1231 1.51167 15.4265 2.55189 16.405C3.59211 17.3835 4.85666 17.9951 6.19287 18.1661V20.5701H4.72335V22.3416H6.19326V24H7.73545V22.3416H9.20497V20.5701H7.73545V18.1659C9.43734 17.9456 11.0091 17.0135 12.1512 15.5474C13.2933 14.0814 13.9257 12.1837 13.9279 10.2164V10.2164ZM1.54219 10.2164C1.54219 8.98463 1.86017 7.78052 2.4559 6.75634C3.05164 5.73215 3.89838 4.93389 4.88906 4.46249C5.87973 3.99109 6.96985 3.86773 8.02156 4.10801C9.07327 4.34828 10.0393 4.9414 10.7976 5.81236C11.5559 6.68332 12.0723 7.79301 12.2815 9.0011C12.4908 10.2092 12.3834 11.4614 11.9731 12.5995C11.5628 13.7375 10.868 14.7102 9.97642 15.3946C9.08487 16.079 8.03666 16.4443 6.96435 16.4444C5.52689 16.4426 4.14876 15.7859 3.13233 14.6183C2.11589 13.4507 1.54416 11.8676 1.54258 10.2164H1.54219Z" fill="#FD297B"/>
<g id="genderMale">
<path id="genderMaleVectorTwo" d="M20.5279 0L21.7187 1.36784L19.4515 3.97221C18.2653 2.87854 16.7992 2.26268 15.2786 2.21932C13.758 2.17595 12.2672 2.70747 11.0352 3.73217C11.4644 4.08887 11.8572 4.50027 12.2059 4.95851C13.0257 4.36077 13.9701 4.0269 14.9407 3.99179C15.9112 3.95668 16.8721 4.22161 17.723 4.75891C18.5739 5.2962 19.2835 6.08614 19.7778 7.04618C20.2721 8.00622 20.5329 9.10113 20.5329 10.2165C20.5329 11.3319 20.2721 12.4268 19.7778 13.3868C19.2835 14.3469 18.5739 15.1368 17.723 15.6741C16.8721 16.2114 15.9112 16.4763 14.9407 16.4412C13.9701 16.4061 13.0257 16.0723 12.2059 15.4745C11.8571 15.9326 11.4644 16.344 11.0352 16.7006C12.3998 17.8325 14.0753 18.3579 15.7512 18.1794C17.4272 18.001 18.9901 17.1309 20.1504 15.7302C21.3107 14.3296 21.9898 12.4933 22.0618 10.5617C22.1338 8.62996 21.594 6.73374 20.5422 5.22424L22.8092 2.61987L24 3.98771V0H20.5279Z" fill="#FF655B"/>
<path id="genderMaleVectorOne" d="M9.86447 4.95851C8.75431 6.41328 8.14224 8.28193 8.14224 10.2165C8.14224 12.1511 8.75431 14.0198 9.86447 15.4745C10.3001 15.1562 10.6943 14.7685 11.0352 14.323C10.1647 13.1887 9.68443 11.7285 9.68443 10.2163C9.68443 8.70414 10.1647 7.24393 11.0352 6.10956C10.6943 5.66418 10.3002 5.27663 9.86447 4.95851V4.95851Z" fill="#FF655B"/>
</g>
</g>
</svg>
