<svg width="48" height="78" viewBox="0 0 48 78" fill="none" xmlns="http://www.w3.org/2000/svg">
<g id="info">
<g id="outter-info">
<path id="i" d="M46.5629 69.5825L45.045 74.0377C40.4912 75.3282 36.8536 76.3103 34.145 76.9856C31.4333 77.663 28.2826 78 24.6928 78C19.1799 78 14.892 77.0304 11.8337 75.1045C8.77551 73.1708 7.24591 70.7206 7.24591 67.7482C7.24591 66.5975 7.3569 65.414 7.58766 64.2081C7.82036 63.0008 8.19035 61.6411 8.69665 60.1213L14.3876 45.659C14.8939 44.2741 15.3243 42.962 15.669 41.7211C16.0185 40.488 16.1869 39.3534 16.1869 38.332C16.1869 36.4851 15.6544 35.1932 14.594 34.4669C13.5337 33.7427 11.5105 33.3749 8.50678 33.3749C7.0356 33.3749 5.52352 33.5441 3.98223 33.8713C2.43413 34.1998 1.11094 34.5172 0 34.8122L1.52182 30.3536C5.24992 29.2637 8.81349 28.3305 12.2222 27.5559C15.631 26.7792 18.8518 26.3905 21.8984 26.3905C27.3732 26.3905 31.5979 27.3406 34.5646 29.2406C37.5313 31.1421 39.0142 33.607 39.0142 36.6445C39.0142 37.2729 38.9168 38.3803 38.7075 39.963C38.503 41.5492 38.1223 43.0025 37.5673 44.3245L31.9007 58.7288C31.4363 59.8857 31.0186 61.2084 30.6554 62.6967C30.2805 64.1752 30.1014 65.3049 30.1014 66.0627C30.1014 67.9754 30.6953 69.2812 31.8861 69.9754C33.0856 70.6696 35.1517 71.0149 38.0863 71.0149C39.464 71.0149 41.0316 70.8394 42.7734 70.4948C44.5104 70.1502 45.7772 69.8475 46.5629 69.5825ZM48 9.10887C48 11.6185 46.6826 13.7619 44.0353 15.5242C41.3947 17.2929 38.2129 18.1779 34.4906 18.1779C30.7566 18.1779 27.567 17.2929 24.8962 15.5242C22.2304 13.7612 20.8945 11.6185 20.8945 9.10887C20.8945 6.6041 22.2304 4.45726 24.8962 2.67254C27.5621 0.890614 30.7576 0 34.4906 0C38.2119 0 41.3947 0.892711 44.0353 2.67254C46.6846 4.45726 48 6.6048 48 9.10887Z" fill="white"/>
</g>
</g>
</svg>
