<svg width="24" height="24" viewBox="0 0 24 24" fill="none" xmlns="http://www.w3.org/2000/svg">
<path id="last-connection" fill-rule="evenodd" clip-rule="evenodd" d="M1.37463 0.0624668C0.836076 0.215557 0.445466 0.534318 0.189419 1.02961L0.0234185 1.35078L0.00447405 3.78632C-0.00837266 5.44098 0.0063092 6.28528 0.0502959 6.41969C0.189064 6.84369 0.707846 6.97638 1.0733 6.68133L1.26665 6.5253L1.28518 5.55842L1.30371 4.59159L7.56314 4.57703C14.607 4.56066 14.0653 4.59507 14.2112 4.15486C14.2758 3.96012 14.2708 3.91141 14.1692 3.74108C14.106 3.63488 13.9876 3.51766 13.9062 3.48062C13.79 3.42773 12.4169 3.41301 7.5272 3.41242L1.29625 3.41162V2.45534C1.29625 1.57298 1.3056 1.4883 1.41732 1.35983C1.48398 1.28328 1.63713 1.19587 1.75772 1.16558C2.06723 1.08785 22.021 1.08924 22.3306 1.16702C22.7349 1.26851 22.7859 1.41646 22.7861 2.48826L22.7864 3.41162L20.3443 3.41242C18.5005 3.41301 17.866 3.42971 17.7542 3.48062C17.6728 3.51766 17.5544 3.63488 17.4912 3.74108C17.3896 3.91141 17.3847 3.96012 17.4492 4.15486C17.587 4.57066 17.5174 4.56039 20.312 4.57859L22.7864 4.59465L22.7861 10.654C22.786 16.5679 22.7832 16.7175 22.6705 16.8846C22.4942 17.1459 22.2884 17.172 20.5307 17.1559L18.9759 17.1416L18.898 16.7134C18.4426 14.209 16.4011 12.223 13.6303 11.589C13.1785 11.4857 12.9573 11.4697 12.0117 11.4723C11.0212 11.4749 10.8611 11.4887 10.3367 11.6162C10.0177 11.6936 9.5185 11.8522 9.22717 11.9684C7.13795 12.802 5.53371 14.6525 5.20177 16.6117C5.1624 16.8443 5.12084 17.0647 5.10953 17.1015C5.08319 17.1867 2.09221 17.1967 1.75772 17.1127C1.63713 17.0824 1.48398 16.995 1.41732 16.9184C1.29862 16.7819 1.29625 16.7204 1.29613 13.7755C1.29607 10.3646 1.30916 10.4658 0.84987 10.3223C0.637633 10.2559 0.587016 10.2577 0.399644 10.3381C0.0103942 10.5051 0.0234185 10.3845 0.0234185 13.8177V16.9275L0.194215 17.2619C0.389757 17.6447 0.754378 17.9774 1.16743 18.15C1.42708 18.2585 1.5581 18.2674 3.27695 18.2925L5.10971 18.3192L5.18644 18.7669C5.47327 20.4397 6.65055 22.0433 8.29984 23.0076C11.3347 24.7822 15.4122 24.1165 17.5801 21.4924C18.2602 20.6694 18.7435 19.6503 18.8926 18.7251L18.9613 18.2992L20.7998 18.2824C22.5821 18.2662 22.6468 18.2619 22.9128 18.1422C23.3144 17.9615 23.6251 17.7 23.8243 17.3749L24 17.0881V9.13913V1.1902L23.8643 0.960295C23.655 0.605939 23.3415 0.324808 22.9735 0.161387L22.6384 0.0125786L12.1301 0.00240831C3.5964 -0.00583503 1.57538 0.00540578 1.37463 0.0624668ZM15.5868 3.46161C15.518 3.48806 15.4022 3.57798 15.3294 3.66143C15.2229 3.78348 15.2028 3.8597 15.2266 4.05219C15.2661 4.37186 15.4707 4.53571 15.8302 4.53571C16.1922 4.53571 16.3942 4.37224 16.4348 4.04646C16.4615 3.83192 16.4444 3.78064 16.2958 3.63157C16.1135 3.44866 15.8095 3.37575 15.5868 3.46161ZM4.22009 6.88988C3.88483 7.01235 3.73191 7.47457 3.93847 7.74114C4.18611 8.06086 4.75083 8.05514 4.96958 7.73075C5.03293 7.63687 5.08479 7.50465 5.0849 7.43694C5.08532 7.22989 4.91091 6.99383 4.69832 6.91349C4.47187 6.82795 4.39941 6.82436 4.22009 6.88988ZM8.00898 6.88988C7.67372 7.01235 7.52081 7.47457 7.72736 7.74114C7.975 8.06086 8.53972 8.05514 8.75847 7.73075C8.82182 7.63687 8.87368 7.50465 8.8738 7.43694C8.87421 7.22989 8.6998 6.99383 8.48721 6.91349C8.26077 6.82795 8.1883 6.82436 8.00898 6.88988ZM11.7979 6.88988C11.5905 6.96568 11.4197 7.20789 11.4197 7.42623C11.4197 8.01488 12.3046 8.20068 12.5841 7.67075C12.8301 7.2043 12.3211 6.69873 11.7979 6.88988ZM15.5232 6.9418C15.2922 7.06915 15.2086 7.20211 15.2086 7.44224C15.2086 7.82432 15.6604 8.09186 16.0542 7.94305C16.3154 7.84434 16.4518 7.66711 16.4518 7.42623C16.4518 7.20029 16.3308 7.02718 16.096 6.91739C15.8697 6.81168 15.75 6.81676 15.5232 6.9418ZM19.2935 6.95529C18.8759 7.21046 18.9293 7.76705 19.388 7.94037C19.9975 8.17065 20.5213 7.49518 20.0779 7.05052C19.8519 6.82383 19.5656 6.78903 19.2935 6.95529ZM4.27313 10.3008C4.05954 10.3382 3.84191 10.6163 3.84191 10.852C3.84191 11.1018 4.06066 11.3634 4.31096 11.4132C4.66978 11.4844 5.08514 11.1834 5.08514 10.852C5.08514 10.6547 4.90653 10.418 4.69832 10.3393C4.58755 10.2975 4.47608 10.2665 4.45062 10.2705C4.42516 10.2745 4.3453 10.2881 4.27313 10.3008ZM8.00839 10.3401C7.76253 10.4369 7.6308 10.6182 7.6308 10.8599C7.6308 11.1015 7.85352 11.3642 8.09986 11.4132C8.45868 11.4844 8.87403 11.1834 8.87403 10.852C8.87403 10.6547 8.69542 10.418 8.48721 10.3393C8.24585 10.2481 8.24224 10.2481 8.00839 10.3401ZM15.5862 10.3401C15.0503 10.551 15.0901 11.2195 15.6485 11.3861C16.0411 11.5033 16.4518 11.2302 16.4518 10.852C16.4518 10.6131 16.3158 10.434 16.0611 10.3378C15.824 10.2482 15.8197 10.2483 15.5862 10.3401ZM19.3713 10.3416C19.0139 10.4821 18.8919 10.9733 19.1501 11.2313C19.528 11.609 20.2407 11.3641 20.2407 10.8567C20.2407 10.6134 20.1061 10.4346 19.85 10.3378C19.6125 10.2481 19.609 10.2481 19.3713 10.3416ZM12.8215 12.6231C15.4242 12.9498 17.4445 14.8586 17.6888 17.2219C17.9496 19.7446 16.2006 22.022 13.4878 22.6923C13.0593 22.7981 12.8499 22.8154 12.0117 22.8146C11.1756 22.8137 10.9676 22.796 10.5675 22.6922C9.51293 22.4183 8.65463 21.9483 7.90988 21.2369C6.73343 20.1132 6.18878 18.6477 6.38763 17.1408C6.62947 15.3083 7.8161 13.8275 9.67349 13.0405C10.631 12.6348 11.7418 12.4875 12.8215 12.6231ZM4.27485 13.7517C3.84055 13.8569 3.68485 14.3894 4.00685 14.6683C4.22412 14.8565 4.48442 14.9011 4.72076 14.7906C4.91754 14.6986 5.08514 14.4628 5.08514 14.2778C5.08514 13.9203 4.67582 13.6545 4.27485 13.7517ZM11.7343 13.7912C11.6305 13.8496 11.5173 13.9453 11.4827 14.0038C11.4415 14.0733 11.4197 14.7743 11.4197 16.0252V17.9401L12.8691 19.2538L14.3186 20.5674H14.5908C14.8235 20.5674 14.8882 20.542 15.0358 20.3926C15.2292 20.1968 15.259 19.9789 15.1238 19.7484C15.0771 19.6689 14.5043 19.1224 13.8509 18.5338L12.6629 17.4638V15.8207C12.6629 14.9062 12.6378 14.1181 12.6064 14.0432C12.4844 13.7532 12.0331 13.6228 11.7343 13.7912ZM19.4098 13.763C18.9373 13.9011 18.868 14.4888 19.2935 14.7488C19.5656 14.915 19.8519 14.8802 20.0779 14.6536C20.5129 14.2173 20.0349 13.5802 19.4098 13.763Z" fill="url(#paint0_linear_1:5)"/>
<defs>
<linearGradient id="paint0_linear_1:5" x1="12" y1="0" x2="12" y2="24" gradientUnits="userSpaceOnUse">
<stop stop-color="#FF655B"/>
<stop offset="1" stop-color="#FD297B" stop-opacity="0.38"/>
</linearGradient>
</defs>
</svg>
