<svg width="24" height="24" viewBox="0 0 24 24" fill="none" xmlns="http://www.w3.org/2000/svg">
<path id="online" fill-rule="evenodd" clip-rule="evenodd" d="M11.1437 0.0975724C9.17907 0.546125 7.75793 2.41619 7.75793 4.55286C7.75793 6.63755 9.14482 8.51067 11.0321 8.97497C11.2132 9.01949 11.4157 9.06211 11.4822 9.06967L11.6032 9.08344L11.6164 9.94472L11.6296 10.806L11.4626 10.8395C11.1404 10.9043 10.6371 11.2202 10.3592 11.5321C9.73346 12.2343 9.53167 13.2275 9.83808 14.0973C9.94115 14.3899 9.94163 14.4015 9.85481 14.468C9.80552 14.5057 9.24388 14.9558 8.60668 15.4682L7.44818 16.3997L7.17984 16.1423C6.61273 15.5986 5.99904 15.2434 5.26293 15.0329C5.00721 14.9597 4.76325 14.9379 4.22709 14.9403C3.61026 14.943 3.47449 14.96 3.10027 15.0817C0.829558 15.8202 -0.440673 18.2153 0.140174 20.6629C0.256643 21.1536 0.607695 21.8894 0.937224 22.3333C1.46269 23.0411 2.33964 23.6586 3.16301 23.9004C3.60968 24.0316 4.89452 24.0336 5.33955 23.9038C5.75183 23.7835 6.39546 23.4524 6.76417 23.1707C8.43836 21.8918 9.00103 19.4197 8.06889 17.4383C7.97423 17.2371 7.90366 17.0667 7.91203 17.0595C7.9204 17.0523 8.48722 16.5979 9.17162 16.0496L10.416 15.0527L10.5691 15.1906C10.9204 15.5071 11.5285 15.7369 12.0143 15.7369C12.5001 15.7369 13.1081 15.5071 13.4595 15.1906L13.6125 15.0527L14.8569 16.0496C15.5413 16.5979 16.1073 17.0514 16.1145 17.0574C16.1218 17.0634 16.0404 17.2638 15.9337 17.5029C15.63 18.1829 15.5332 18.6475 15.5303 19.439C15.5275 20.1904 15.5947 20.5727 15.8408 21.2057C16.3513 22.5183 17.4035 23.4952 18.7132 23.8723C19.2616 24.0302 20.2436 24.0304 20.793 23.8726C22.6271 23.3459 23.8859 21.7037 23.9931 19.6979C24.1181 17.3578 22.5314 15.3012 20.3358 14.9575C19.101 14.7642 17.8386 15.1931 16.8487 16.1423L16.5804 16.3997L15.4219 15.4682C14.7847 14.9558 14.223 14.5057 14.1737 14.468C14.0869 14.4015 14.0874 14.3899 14.1905 14.0973C14.4969 13.2275 14.2951 12.2343 13.6694 11.5321C13.3915 11.2202 12.8881 10.9043 12.566 10.8395L12.3989 10.806L12.4122 9.94813L12.4254 9.09028L12.764 9.02887C14.1158 8.78365 15.3435 7.75218 15.907 6.38819C16.4764 5.00986 16.3513 3.3411 15.5841 2.08316C14.6205 0.502891 12.8452 -0.290918 11.1437 0.0975724ZM12.7297 0.90562C12.9434 0.951961 13.298 1.08736 13.5605 1.22297C13.9523 1.42532 14.0818 1.52768 14.4568 1.93176C14.7647 2.26345 14.9473 2.51198 15.0703 2.76652C15.5602 3.78075 15.6214 4.86105 15.2483 5.90593C15.102 6.3157 14.748 6.90048 14.4866 7.16439L14.3359 7.31646V7.03288C14.3359 6.66189 14.224 6.21318 14.0385 5.84063C13.8985 5.55943 13.4644 5.05822 13.2477 4.92743C13.1662 4.87829 13.1604 4.85432 13.2109 4.77566C13.244 4.72435 13.3309 4.56581 13.4042 4.42342C13.5296 4.1798 13.5375 4.12626 13.5377 3.5173C13.5379 2.87816 13.5358 2.86599 13.372 2.54258C13.192 2.18718 12.9863 1.97686 12.6446 1.79869C12.3216 1.63031 11.6968 1.63585 11.3613 1.81003C11.0541 1.96955 10.7635 2.27986 10.6112 2.61119C10.504 2.84414 10.4921 2.9349 10.4916 3.5173C10.4911 4.12699 10.4988 4.17954 10.6243 4.42342C10.6976 4.56581 10.7846 4.72435 10.8176 4.77566C10.8682 4.85432 10.8624 4.87829 10.7809 4.92743C10.5641 5.05822 10.1301 5.55943 9.9901 5.84063C9.80456 6.21318 9.69263 6.66189 9.69263 7.03288V7.31646L9.54197 7.16439C8.8861 6.50231 8.47667 5.31561 8.54627 4.27849C8.60789 3.36026 8.92794 2.62714 9.57065 1.93227C9.92973 1.54404 10.0814 1.42138 10.4268 1.23959C11.1795 0.843538 11.9365 0.733717 12.7297 0.90562ZM12.4381 2.62009C12.7201 2.84548 12.764 2.96628 12.764 3.5173C12.764 3.95182 12.7492 4.0487 12.6642 4.17048C12.4747 4.44216 12.3202 4.52697 12.0143 4.52697C11.709 4.52697 11.5538 4.44211 11.3658 4.17261C11.2588 4.01919 11.2029 3.46294 11.2611 3.13083C11.2994 2.91197 11.4978 2.64868 11.6975 2.55169C11.8933 2.45663 12.278 2.49215 12.4381 2.62009ZM12.65 5.53338C12.9832 5.70104 13.192 5.91488 13.37 6.2706C13.5266 6.58365 13.5347 6.62688 13.5534 7.25086L13.5731 7.90363L13.2169 8.03892C12.367 8.36171 11.5304 8.35327 10.74 8.01391L10.4573 7.89255L10.4775 7.24532C10.4947 6.69616 10.5154 6.55885 10.614 6.33921C10.8124 5.89723 11.2049 5.55187 11.6515 5.42626C11.8888 5.35946 12.417 5.41616 12.65 5.53338ZM6.59711 5.69483C6.42419 5.8383 6.27817 5.9721 6.27266 5.99209C6.26709 6.01212 6.37592 6.16161 6.5145 6.32429L6.76639 6.62005L7.0656 6.3609L7.36485 6.10175L7.14651 5.76742C7.02647 5.58356 6.92446 5.4333 6.91986 5.43356C6.91527 5.43382 6.77002 5.5514 6.59711 5.69483ZM16.9055 5.7405C16.7957 5.90795 16.7059 6.0667 16.7059 6.09316C16.7059 6.11967 16.8353 6.24885 16.9933 6.38027L17.2807 6.61917L17.5335 6.30679L17.7862 5.99447L17.6451 5.87118C17.5675 5.80341 17.4142 5.67774 17.3045 5.59194L17.105 5.43599L16.9055 5.7405ZM5.35164 6.93926C5.21195 7.11039 5.09771 7.26914 5.09771 7.29202C5.09771 7.31486 5.22559 7.4412 5.38197 7.57266L5.66617 7.81172L5.92064 7.49852L6.1751 7.18536L5.91619 6.90467C5.77374 6.75027 5.64562 6.62492 5.6314 6.62606C5.61718 6.62719 5.49133 6.76813 5.35164 6.93926ZM18.1128 6.90421L17.8535 7.18536L18.1091 7.50007C18.2701 7.69807 18.3846 7.79903 18.4181 7.77232C18.6796 7.56386 18.9308 7.32822 18.9308 7.2914C18.9308 7.2476 18.4579 6.66313 18.4008 6.63646C18.385 6.62911 18.2554 6.7496 18.1128 6.90421ZM4.41394 8.29393C4.34376 8.41488 4.25326 8.58435 4.21278 8.67051L4.13916 8.82709L4.47314 9.01256C4.70506 9.14133 4.81964 9.18052 4.84804 9.14076C4.93162 9.02353 5.20422 8.48126 5.18753 8.46531C5.1232 8.4037 4.61123 8.07377 4.58008 8.07387C4.55885 8.07392 4.48407 8.17292 4.41394 8.29393ZM19.1105 8.28689L18.8306 8.49478L18.9852 8.78913C19.2275 9.25079 19.1924 9.2367 19.5648 9.02141L19.8965 8.82962L19.745 8.54231C19.5201 8.11555 19.4925 8.07351 19.4391 8.07641C19.4123 8.07786 19.2644 8.17256 19.1105 8.28689ZM3.6269 10.0776C3.55802 10.297 3.51798 10.4911 3.5379 10.509C3.62182 10.5845 4.18414 10.729 4.22056 10.6843C4.26313 10.6321 4.46893 10.0571 4.46893 9.99044C4.46893 9.95 3.88301 9.67889 3.79565 9.67889C3.77171 9.67889 3.69582 9.8583 3.6269 10.0776ZM19.874 9.8177C19.7144 9.88911 19.5758 9.95585 19.566 9.96605C19.5561 9.97625 19.6074 10.1585 19.6798 10.3711L19.8114 10.7575L20.0564 10.6796C20.4537 10.5533 20.5381 10.5096 20.5148 10.4419C20.5027 10.4067 20.4443 10.2206 20.385 10.0284C20.3257 9.83614 20.2518 9.68091 20.2207 9.68339C20.1897 9.68588 20.0336 9.7463 19.874 9.8177ZM3.28828 11.4323C3.26056 11.4811 3.15246 12.2741 3.17118 12.2918C3.17998 12.3001 3.35299 12.3231 3.55565 12.3429L3.92407 12.3789L3.97964 11.979C4.01021 11.7591 4.02709 11.5704 4.01718 11.5598C3.97897 11.5189 3.30598 11.4011 3.28828 11.4323ZM20.2368 11.5018C20.1171 11.5301 20.0133 11.5591 20.0063 11.5661C19.9991 11.5733 20.0185 11.7603 20.0493 11.9817L20.1052 12.3843L20.4723 12.3487C20.6742 12.3291 20.8467 12.3052 20.8558 12.2955C20.8648 12.2858 20.8464 12.0892 20.815 11.8586L20.7577 11.4393L20.6061 11.4449C20.5227 11.4479 20.3565 11.4736 20.2368 11.5018ZM12.6672 11.7542C12.973 11.9094 13.2643 12.2195 13.4172 12.5526C13.5154 12.7663 13.5361 12.8882 13.5357 13.2516C13.5353 13.6527 13.5208 13.7206 13.3713 14.0179C13.1886 14.3814 13.0367 14.5385 12.6724 14.7406C12.4631 14.8567 12.3627 14.8779 12.0143 14.8792C11.6735 14.8805 11.5618 14.859 11.3613 14.7534C10.104 14.0916 10.2087 12.1922 11.5308 11.6779C11.8361 11.5592 12.3515 11.5937 12.6672 11.7542ZM3.36252 13.2382L3.10255 13.2574L3.12475 13.6688C3.13698 13.8951 3.15604 14.0892 3.16712 14.1003C3.19343 14.1266 3.87831 14.0578 3.90197 14.0265C3.91198 14.0132 3.91067 13.8218 3.89906 13.6011C3.87822 13.2046 3.87643 13.1999 3.75024 13.2094C3.67996 13.2147 3.5055 13.2276 3.36252 13.2382ZM20.4718 13.2381L20.1507 13.256L20.1285 13.6292C20.1163 13.8344 20.1194 14.0169 20.1353 14.0346C20.1512 14.0523 20.3193 14.0813 20.5089 14.0991L20.8536 14.1313L20.8837 13.9697C20.9386 13.676 20.9196 13.1989 20.8535 13.2099C20.8202 13.2155 20.6485 13.2282 20.4718 13.2381ZM4.99091 15.8177C5.2046 15.864 5.55919 15.9994 5.82168 16.135C6.2135 16.3374 6.34298 16.4398 6.71803 16.8438C7.37384 17.5504 7.68344 18.2725 7.7424 19.2329C7.80523 20.2572 7.4002 21.4144 6.74714 22.0765L6.59711 22.2285V21.9449C6.59711 21.574 6.48518 21.1252 6.29965 20.7527C6.15967 20.4715 5.72562 19.9703 5.50884 19.8395C5.42738 19.7904 5.42158 19.7664 5.47212 19.6877C5.50516 19.6364 5.59212 19.4779 5.6654 19.3355C5.79077 19.0919 5.79865 19.0383 5.79885 18.4294C5.79904 17.7902 5.79696 17.7781 5.63319 17.4547C5.45316 17.0992 5.2475 16.8889 4.90574 16.7108C4.58274 16.5424 3.95798 16.5479 3.6225 16.7221C3.31527 16.8816 3.02472 17.1919 2.87236 17.5233C2.76523 17.7562 2.75323 17.847 2.7528 18.4294C2.75232 19.0391 2.76001 19.0916 2.88552 19.3355C2.9588 19.4779 3.04576 19.6364 3.0788 19.6877C3.12934 19.7664 3.12354 19.7904 3.04209 19.8395C2.8253 19.9703 2.39125 20.4715 2.25128 20.7527C2.06574 21.1252 1.95381 21.574 1.95381 21.9449V22.2285L1.80315 22.0765C1.54172 21.8125 1.18777 21.2278 1.04146 20.818C0.6683 19.7731 0.729582 18.6928 1.21945 17.6786C1.3424 17.4241 1.52504 17.1755 1.8329 16.8438C2.20765 16.4401 2.33776 16.3372 2.72924 16.1347C3.46995 15.7516 4.20842 15.6481 4.99091 15.8177ZM20.4686 15.8177C20.6822 15.864 21.0368 15.9994 21.2993 16.135C21.6911 16.3374 21.8206 16.4398 22.1957 16.8438C22.8515 17.5504 23.1611 18.2725 23.22 19.2329C23.2829 20.2572 22.8778 21.4144 22.2248 22.0765L22.0747 22.2285V21.9449C22.0747 21.574 21.9628 21.1252 21.7773 20.7527C21.6373 20.4715 21.2033 19.9703 20.9865 19.8395C20.905 19.7904 20.8992 19.7664 20.9498 19.6877C20.9828 19.6364 21.0698 19.4779 21.143 19.3355C21.2684 19.0919 21.2763 19.0383 21.2765 18.4294C21.2767 17.7902 21.2746 17.7781 21.1108 17.4547C20.9308 17.0992 20.7251 16.8889 20.3834 16.7108C20.0604 16.5424 19.4356 16.5479 19.1001 16.7221C18.7929 16.8816 18.5024 17.1919 18.35 17.5233C18.2429 17.7562 18.2309 17.847 18.2304 18.4294C18.23 19.0391 18.2376 19.0916 18.3632 19.3355C18.4364 19.4779 18.5234 19.6364 18.5564 19.6877C18.607 19.7664 18.6012 19.7904 18.5197 19.8395C18.3029 19.9703 17.8689 20.4715 17.7289 20.7527C17.5434 21.1252 17.4315 21.574 17.4315 21.9449V22.2285L17.2808 22.0765C17.0194 21.8125 16.6654 21.2278 16.5191 20.818C16.1459 19.7731 16.2072 18.6928 16.6971 17.6786C16.82 17.4241 17.0027 17.1755 17.3105 16.8438C17.6853 16.4401 17.8154 16.3372 18.2069 16.1347C18.9476 15.7516 19.6861 15.6481 20.4686 15.8177ZM4.69931 17.5322C4.98129 17.7576 5.02516 17.8784 5.02516 18.4294C5.02516 18.8639 5.01036 18.9608 4.92542 19.0826C4.73592 19.3542 4.58134 19.439 4.27546 19.439C3.97021 19.439 3.81495 19.3542 3.627 19.0847C3.51996 18.9313 3.46405 18.375 3.52223 18.0429C3.56059 17.824 3.75899 17.5607 3.95865 17.4638C4.15444 17.3687 4.53921 17.4042 4.69931 17.5322ZM20.1769 17.5322C20.4589 17.7576 20.5028 17.8784 20.5028 18.4294C20.5028 18.8639 20.488 18.9608 20.4031 19.0826C20.2136 19.3542 20.059 19.439 19.7531 19.439C19.4479 19.439 19.2926 19.3542 19.1046 19.0847C18.9976 18.9313 18.9417 18.375 18.9999 18.0429C19.0382 17.824 19.2366 17.5607 19.4363 17.4638C19.6321 17.3687 20.0168 17.4042 20.1769 17.5322ZM4.91116 20.4455C5.24436 20.6131 5.45321 20.827 5.63116 21.1827C5.78777 21.4957 5.79585 21.539 5.81462 22.1629L5.83425 22.8157L5.47807 22.951C4.62622 23.2746 3.85689 23.2668 3.00035 22.9262L2.71677 22.8135L2.73785 22.1618C2.75575 21.6092 2.77664 21.4708 2.87517 21.2513C3.07357 20.8093 3.46608 20.4639 3.9127 20.3383C4.15 20.2715 4.67822 20.3282 4.91116 20.4455ZM20.3888 20.4455C20.722 20.6131 20.9309 20.827 21.1088 21.1827C21.2654 21.4957 21.2735 21.539 21.2923 22.1629L21.3119 22.8157L20.9557 22.951C20.1039 23.2746 19.3345 23.2668 18.478 22.9262L18.1944 22.8135L18.2155 22.1618C18.2334 21.6092 18.2543 21.4708 18.3528 21.2513C18.5512 20.8093 18.9437 20.4639 19.3903 20.3383C19.6276 20.2715 20.1559 20.3282 20.3888 20.4455ZM8.80954 21.6786C8.73621 21.8707 8.67633 22.0433 8.67653 22.062C8.67696 22.0988 9.23832 22.3127 9.33457 22.3127C9.38516 22.3127 9.62724 21.5957 9.58676 21.5658C9.55363 21.5413 9.0047 21.3289 8.97491 21.3291C8.9573 21.3292 8.88291 21.4865 8.80954 21.6786ZM14.7095 21.4515C14.3959 21.5742 14.3974 21.5673 14.5711 22.1098L14.6503 22.3568L14.9847 22.2314C15.1686 22.1624 15.3269 22.0975 15.3365 22.0873C15.3714 22.05 15.0846 21.3291 15.0374 21.3356C15.0108 21.3392 14.8631 21.3914 14.7095 21.4515ZM10.2248 22.0371C10.1937 22.2029 10.1575 22.3881 10.1444 22.4485C10.1179 22.5706 10.1664 22.5926 10.5933 22.6522C10.7296 22.6712 10.8529 22.6662 10.8674 22.6411C10.8819 22.616 10.9089 22.4305 10.9275 22.2289L10.9613 21.8624L10.6938 21.8287C10.5467 21.8102 10.3938 21.7817 10.3539 21.7653C10.2979 21.7423 10.2685 21.8043 10.2248 22.0371ZM13.3758 21.813L13.0687 21.8663L13.1026 22.2578C13.1212 22.4731 13.1454 22.6592 13.1562 22.6713C13.1791 22.6969 13.8499 22.5913 13.8818 22.5573C13.9119 22.525 13.7467 21.7415 13.7118 21.7514C13.6959 21.7559 13.5448 21.7836 13.3758 21.813ZM11.6584 22.1444C11.6419 22.2513 11.6282 22.4377 11.6279 22.5587L11.6273 22.7787H12.0211H12.415L12.3839 22.4604C12.3668 22.2854 12.3529 22.099 12.3529 22.0462C12.3529 21.9621 12.3118 21.9503 12.0206 21.9503H11.6884L11.6584 22.1444Z" fill="#4AF36F"/>
</svg>
