<svg width="24" height="24" viewBox="0 0 24 24" fill="none" xmlns="http://www.w3.org/2000/svg">
<path id="score" fill-rule="evenodd" clip-rule="evenodd" d="M11.566 0.0972848C11.2338 0.279103 11.0816 0.49882 10.6481 1.42239C10.4172 1.9143 10.2093 2.32891 10.1862 2.34368C10.1631 2.3585 9.744 2.42978 9.2549 2.50212C8.76575 2.57442 8.25673 2.67529 8.12378 2.72631C7.72404 2.87961 7.40577 3.31982 7.40478 3.72087C7.40464 3.77796 7.43985 3.94195 7.48312 4.08528C7.55325 4.31792 7.6434 4.43079 8.32166 5.13528L9.08163 5.92465L8.92304 6.88446C8.83579 7.41238 8.7643 7.92241 8.76421 8.01789C8.76369 8.48536 9.10727 8.96969 9.52155 9.08552C9.8965 9.19033 10.1109 9.12366 11.0924 8.59692L12.0053 8.1071L12.5294 8.39532C13.6093 8.98917 13.8045 9.07974 14.0755 9.11273C14.5526 9.17089 15.0008 8.88038 15.1611 8.40912C15.2626 8.11084 15.2544 7.96847 15.0727 6.88237L14.9121 5.92134L15.6551 5.15797C16.1134 4.68715 16.4245 4.3275 16.4668 4.21953C16.6628 3.72019 16.6027 3.34601 16.2716 3.00312C15.9994 2.72121 15.8283 2.66601 14.706 2.49785C14.2364 2.42749 13.8336 2.35801 13.8109 2.34348C13.7882 2.32891 13.5816 1.91551 13.3518 1.42477C12.9155 0.493038 12.7634 0.275702 12.4213 0.0948068C12.1804 -0.0325436 11.8013 -0.0314747 11.566 0.0972848ZM12.3631 2.93383C12.7818 3.79467 12.8002 3.80954 13.6063 3.93607C13.9211 3.98548 14.2499 4.03932 14.337 4.05569L14.4954 4.08548L13.9553 4.65299C13.2591 5.38449 13.2648 5.36641 13.4252 6.34469C13.4915 6.74919 13.5458 7.0948 13.5458 7.11273C13.5458 7.13071 13.2374 6.98014 12.8605 6.77815C12.3633 6.51169 12.1269 6.41097 11.9987 6.41097C11.8706 6.41097 11.6342 6.51169 11.1369 6.77815C10.7601 6.98014 10.4517 7.13071 10.4517 7.11273C10.4517 7.0948 10.5059 6.74919 10.5723 6.34469C10.7327 5.36641 10.7384 5.38449 10.0422 4.65299L9.50205 4.08548L9.66046 4.05569C9.74756 4.03932 10.0768 3.98538 10.3921 3.93592C10.7241 3.88379 11.03 3.80736 11.1188 3.7543C11.2408 3.68132 11.3437 3.51704 11.6237 2.94802C11.8171 2.55494 11.9858 2.23323 11.9987 2.23304C12.0116 2.23289 12.1756 2.54823 12.3631 2.93383ZM5.92778 4.61616C5.71842 4.67986 5.45678 4.92577 5.346 5.16297C4.9937 5.91726 5.63197 6.81445 6.4272 6.68268C6.92764 6.59974 7.30793 6.14743 7.30924 5.63355C7.3099 5.39542 7.1476 4.98232 7.00012 4.84666C6.74293 4.61009 6.27699 4.50995 5.92778 4.61616ZM17.2727 4.67966C16.9971 4.81387 16.9127 4.90317 16.7841 5.19713C16.5045 5.83612 16.8931 6.57044 17.5703 6.68268C18.0021 6.7542 18.4301 6.52175 18.6293 6.10734C19.0765 5.17721 18.1828 4.23663 17.2727 4.67966ZM0.535138 7.57952C0.337679 7.63987 0.102061 7.89272 0.0385854 8.11234C-0.0646442 8.46947 0.0978417 8.86474 0.417375 9.03368C0.604098 9.13241 0.652619 9.13353 4.16618 9.12065C7.67837 9.10782 7.72755 9.10632 7.85525 9.00744C8.10517 8.81406 8.17802 8.66309 8.17802 8.33881C8.17802 8.10238 8.15486 8.00501 8.06884 7.88004C7.83125 7.53477 8.05135 7.55372 4.16979 7.54444C2.22638 7.53978 0.614177 7.55533 0.535138 7.57952ZM16.2882 7.60056C15.7056 7.81518 15.6235 8.60605 16.1422 9.00744C16.2703 9.10661 16.3086 9.10763 19.8897 9.10763H23.5078L23.6656 8.99097C23.8407 8.86153 23.9974 8.55241 23.999 8.33342C24.0005 8.11647 23.8339 7.80983 23.6409 7.67427L23.4678 7.5528L19.9718 7.54216C17.0502 7.53327 16.445 7.54289 16.2882 7.60056ZM1.59251 11.1048C0.519339 11.4037 -0.0447202 12.6935 0.432189 13.758C0.679012 14.3091 1.00225 14.6001 1.83995 15.0256C2.44034 15.3305 2.55379 15.4536 2.49842 15.7403C2.43645 16.0615 1.99085 16.048 1.36496 15.7058C1.07576 15.5477 0.914209 15.4889 0.769303 15.4889C0.133283 15.4889 -0.234021 16.2642 0.167646 16.759C0.233418 16.84 0.426517 16.987 0.596785 17.0857C1.95851 17.8749 3.32145 17.6442 3.84819 16.5353C3.97186 16.2749 3.999 16.1532 4.01818 15.7733C4.06965 14.7534 3.65551 14.1546 2.50095 13.5795C2.00557 13.3327 1.77891 13.1463 1.77891 12.9857C1.77891 12.9479 1.81112 12.8525 1.85045 12.7736C1.97009 12.5338 2.19689 12.5823 2.55955 12.9254C2.89718 13.2446 3.29913 13.2806 3.61862 13.0202C3.86511 12.8192 3.96591 12.3433 3.82273 12.0563C3.7218 11.8541 3.27583 11.4402 3.00641 11.2986C2.50635 11.036 2.05944 10.9747 1.59251 11.1048ZM6.56066 11.0589C5.51365 11.2271 4.77866 11.978 4.51323 13.1508C4.39279 13.6832 4.39425 14.9886 4.51581 15.4727C4.84434 16.7805 5.69324 17.5366 6.84194 17.5445C7.31993 17.5478 7.60229 17.4857 7.95843 17.299C8.44847 17.042 8.93794 16.4812 9.05468 16.043C9.1895 15.5369 8.68081 14.977 8.1858 15.0866C7.93753 15.1416 7.77673 15.2663 7.61232 15.5311C7.41861 15.8432 7.22945 15.9537 6.88882 15.9537C6.42874 15.9537 6.16678 15.7027 6.02093 15.1224C5.92792 14.7522 5.92938 13.8557 6.02361 13.4786C6.16115 12.9282 6.46864 12.6302 6.89867 12.6304C7.19818 12.6305 7.40103 12.7607 7.61804 13.0919C7.88741 13.5031 8.06176 13.6157 8.39203 13.5918C9.01464 13.5467 9.28889 12.9718 8.98314 12.3529C8.80645 11.9951 8.35063 11.5083 8.02275 11.3272C7.58452 11.0851 7.03059 10.9835 6.56066 11.0589ZM11.4596 11.079C10.6971 11.2116 10.1216 11.6639 9.77278 12.4046C9.56257 12.8509 9.47247 13.217 9.42409 13.8207C9.24459 16.0612 10.2112 17.5372 11.8637 17.5461C13.3329 17.5541 14.2558 16.4714 14.3743 14.6006C14.4293 13.7332 14.2381 12.7745 13.8927 12.185C13.3974 11.34 12.4459 10.9074 11.4596 11.079ZM15.5617 11.0814C15.4087 11.1447 15.2438 11.3065 15.147 11.4885C15.0782 11.6176 15.0677 11.9143 15.0547 14.0879C15.0466 15.4375 15.0532 16.6554 15.0695 16.7943C15.124 17.2611 15.43 17.5591 15.848 17.5526C16.2762 17.5458 16.5439 17.2718 16.5894 16.7936L16.6164 16.5089L17.1884 16.995C17.7995 17.5143 17.8697 17.554 18.1691 17.5495C18.5802 17.5435 18.8508 17.2621 18.8786 16.8121C18.901 16.4481 18.8225 16.3298 18.2127 15.8091C17.9406 15.5769 17.7193 15.3734 17.7207 15.3569C17.7222 15.3404 17.8745 15.2521 18.0592 15.1607C18.4858 14.9495 18.803 14.6239 18.9982 14.1968C19.1407 13.8851 19.1479 13.8412 19.1479 13.2862C19.1479 12.7525 19.1371 12.6792 19.0198 12.4196C18.7519 11.8269 18.3894 11.5154 17.6879 11.2748C17.0769 11.0653 15.867 10.9553 15.5617 11.0814ZM20.3434 11.0814C20.1904 11.1447 20.0256 11.3065 19.9287 11.4885C19.86 11.6176 19.8494 11.9143 19.8364 14.0879C19.8283 15.4375 19.835 16.6554 19.8512 16.7943C19.8862 17.0937 20.0241 17.3248 20.2497 17.4622C20.4027 17.5553 20.5018 17.5631 21.7263 17.5777C23.3274 17.5967 23.4801 17.5812 23.7048 17.3768C24.1042 17.0134 24.084 16.4332 23.6612 16.1206C23.5129 16.011 23.4723 16.0067 22.4412 15.9925L21.3747 15.9778V15.5478V15.1178L21.9959 15.1009C22.5535 15.0858 22.6325 15.0726 22.7675 14.9727C23.2797 14.5941 23.2535 13.8744 22.7177 13.6055C22.5485 13.5206 22.4278 13.5049 21.9459 13.5049H21.3747V13.0676V12.6303H22.3753C23.3293 12.6303 23.3853 12.6251 23.58 12.5184C23.8106 12.392 24 12.0821 24 11.8313C24 11.5661 23.8142 11.2586 23.5799 11.1362C23.3759 11.0296 23.3344 11.027 21.9156 11.0299C21.066 11.0317 20.4118 11.0532 20.3434 11.0814ZM12.2002 12.6959C12.4133 12.7882 12.6298 13.0622 12.7303 13.3668C12.852 13.7355 12.8531 14.8179 12.7322 15.2276C12.539 15.8824 11.922 16.1613 11.4233 15.8194C10.9836 15.5179 10.801 14.3457 11.0464 13.4006C11.2057 12.7873 11.7058 12.4819 12.2002 12.6959ZM17.3121 12.8162C17.5505 12.9255 17.6347 13.0532 17.6414 13.3153C17.6492 13.6256 17.351 13.8507 16.8391 13.921L16.593 13.9547V13.31V12.6653L16.8473 12.6925C16.9872 12.7075 17.1963 12.7631 17.3121 12.8162ZM0.372042 19.5906C0.105858 19.7784 0.0209117 19.9399 0.0209117 20.2587C0.0209117 20.5774 0.105858 20.739 0.372042 20.9268L0.527027 21.0361H11.9987H23.4704L23.6254 20.9268C23.8916 20.739 23.9766 20.5774 23.9766 20.2587C23.9766 19.9399 23.8916 19.7784 23.6254 19.5906L23.4704 19.4813H11.9987H0.527027L0.372042 19.5906ZM5.42345 22.5532C5.18469 22.6967 5.04058 23.0056 5.07307 23.3044C5.10026 23.5546 5.20954 23.7316 5.43508 23.8907L5.59006 24H11.9987H18.4074L18.5624 23.8907C18.7879 23.7316 18.8972 23.5546 18.9244 23.3044C18.9575 23.0003 18.8122 22.6939 18.5673 22.5513L18.3851 22.4452L11.9924 22.4463L5.59962 22.4474L5.42345 22.5532Z" fill="url(#paint0_linear_4:17)"/>
<defs>
<linearGradient id="paint0_linear_4:17" x1="12" y1="0" x2="12" y2="24" gradientUnits="userSpaceOnUse">
<stop stop-color="#FD297B" stop-opacity="0.87"/>
<stop offset="0.963542" stop-color="#FF655B" stop-opacity="0.88"/>
</linearGradient>
</defs>
</svg>
