<svg width="24" height="24" viewBox="0 0 24 24" fill="none" xmlns="http://www.w3.org/2000/svg">
<g id="sexualOrientation">
<path id="sexualOrientationVector" d="M23.7158 0H17.7903C17.7149 0 17.6426 0.0291245 17.5893 0.0809664C17.536 0.132808 17.5061 0.203121 17.5061 0.276437V1.97553C17.5061 2.04884 17.536 2.11915 17.5893 2.171C17.6426 2.22284 17.7149 2.25196 17.7903 2.25196H19.8542L16.1276 5.87671C14.9805 4.85846 13.4931 4.2787 11.9406 4.24467C10.388 4.21064 8.87528 4.72464 7.68222 5.69161L7.25182 5.27308L7.91186 4.63098C7.96514 4.57914 7.99507 4.50884 7.99507 4.43554C7.99507 4.36223 7.96514 4.29193 7.91186 4.24009L6.45331 2.82142C6.40001 2.7696 6.32774 2.74049 6.25237 2.74049C6.17701 2.74049 6.10474 2.7696 6.05144 2.82142L5.3914 3.46353L4.14589 2.25196H6.20969C6.28506 2.25196 6.35735 2.22284 6.41065 2.171C6.46395 2.11915 6.49389 2.04884 6.49389 1.97553V0.276437C6.49389 0.203121 6.46395 0.132808 6.41065 0.0809664C6.35735 0.0291245 6.28506 0 6.20969 0H0.284207C0.20883 0 0.136541 0.0291245 0.0832422 0.0809664C0.0299431 0.132808 0 0.203121 0 0.276437V6.03992C0 6.11323 0.0299431 6.18355 0.0832422 6.23539C0.136541 6.28723 0.20883 6.31635 0.284207 6.31635H2.03117C2.10654 6.31635 2.17883 6.28723 2.23213 6.23539C2.28543 6.18355 2.31537 6.11323 2.31537 6.03992V4.03233L3.56088 5.24378L2.93085 5.85659C2.90445 5.88226 2.88351 5.91273 2.86922 5.94628C2.85494 5.97982 2.84758 6.01577 2.84758 6.05208C2.84758 6.08839 2.85494 6.12434 2.86922 6.15789C2.88351 6.19143 2.90445 6.22191 2.93085 6.24758L4.3894 7.66625C4.4427 7.71807 4.51497 7.74719 4.59033 7.74719C4.6657 7.74719 4.73797 7.71807 4.79127 7.66625L5.4213 7.05344L6.05985 7.67443C5.61475 8.53174 5.37871 9.47727 5.37005 10.4377C5.3614 11.398 5.58036 12.3475 6.00995 13.2122C6.43953 14.077 7.0682 14.8338 7.84715 15.4241C8.6261 16.0143 9.53439 16.422 10.5015 16.6156V18.7177H7.9438C7.86843 18.7177 7.79614 18.7469 7.74284 18.7987C7.68954 18.8505 7.6596 18.9209 7.6596 18.9942V20.9592C7.6596 21.0325 7.68954 21.1028 7.74284 21.1547C7.79614 21.2065 7.86843 21.2356 7.9438 21.2356H10.5017V23.7236C10.5017 23.7969 10.5316 23.8672 10.5849 23.919C10.6382 23.9709 10.7105 24 10.7859 24H12.806C12.8814 24 12.9537 23.9709 13.007 23.919C13.0603 23.8672 13.0902 23.7969 13.0902 23.7236V21.2356H15.6481C15.7235 21.2356 15.7957 21.2065 15.849 21.1547C15.9023 21.1028 15.9323 21.0325 15.9323 20.9592V18.9942C15.9323 18.9209 15.9023 18.8505 15.849 18.7987C15.7957 18.7469 15.7235 18.7177 15.6481 18.7177H13.0902V16.6156C14.032 16.4269 14.9182 16.0352 15.6837 15.4692C16.4492 14.9032 17.0743 14.1774 17.5132 13.3452C17.9521 12.5131 18.1934 11.5958 18.2195 10.6609C18.2456 9.72599 18.0557 8.79731 17.6639 7.94324L21.6846 4.03233V6.03992C21.6846 6.11323 21.7146 6.18355 21.7679 6.23539C21.8212 6.28723 21.8935 6.31635 21.9688 6.31635H23.7158C23.7912 6.31635 23.8635 6.28723 23.9168 6.23539C23.9701 6.18355 24 6.11323 24 6.03992V0.276437C24 0.203121 23.9701 0.132808 23.9168 0.0809664C23.8635 0.0291245 23.7912 0 23.7158 0V0ZM23.4316 5.76348H22.253V3.36501C22.253 3.31035 22.2364 3.25692 22.2051 3.21147C22.1739 3.16603 22.1295 3.13061 22.0776 3.10968C22.0257 3.08876 21.9686 3.08328 21.9135 3.09393C21.8583 3.10458 21.8077 3.13088 21.768 3.16951L17.1213 7.68925C17.0795 7.72989 17.0518 7.78219 17.042 7.83887C17.0322 7.89555 17.0408 7.95379 17.0666 8.00549C17.4638 8.80254 17.6646 9.67867 17.653 10.5643C17.6413 11.45 17.4176 12.3209 16.9996 13.1078C16.5815 13.8947 15.9807 14.576 15.2447 15.0976C14.5087 15.6193 13.6578 15.9669 12.7596 16.1128C12.6932 16.1235 12.6328 16.1568 12.5892 16.2068C12.5457 16.2567 12.5218 16.3201 12.5218 16.3856V18.9942C12.5218 19.0675 12.5517 19.1378 12.605 19.1896C12.6583 19.2415 12.7306 19.2706 12.806 19.2706H15.3639V20.6828H12.806C12.7306 20.6828 12.6583 20.7119 12.605 20.7637C12.5517 20.8156 12.5218 20.8859 12.5218 20.9592V23.4471H11.07V20.9592C11.07 20.8859 11.04 20.8156 10.9867 20.7637C10.9334 20.7119 10.8611 20.6828 10.7858 20.6828H8.22801V19.2706H10.7859C10.8612 19.2706 10.9335 19.2415 10.9868 19.1896C11.0401 19.1378 11.0701 19.0675 11.0701 18.9942V16.3856C11.0701 16.3201 11.0462 16.2568 11.0027 16.2068C10.9591 16.1568 10.8988 16.1235 10.8324 16.1128C9.91 15.9632 9.03787 15.6009 8.28889 15.0563C7.53991 14.5118 6.93584 13.8007 6.52719 12.9826C6.11854 12.1645 5.91718 11.2631 5.93995 10.3539C5.96271 9.44458 6.20894 8.55382 6.65805 7.75604C6.68766 7.70358 6.69896 7.6432 6.69027 7.58396C6.68158 7.52472 6.65336 7.46983 6.60985 7.42752L5.6224 6.46707C5.56911 6.41524 5.49683 6.38613 5.42147 6.38613C5.34611 6.38613 5.27383 6.41524 5.22053 6.46707L4.59039 7.07932L3.53314 6.05164L4.16317 5.43883C4.21645 5.387 4.24638 5.31669 4.24638 5.24339C4.24638 5.17009 4.21645 5.09979 4.16317 5.04795L2.23216 3.16951C2.19241 3.13084 2.14177 3.1045 2.08663 3.09383C2.03149 3.08316 1.97434 3.08864 1.9224 3.10956C1.87046 3.13049 1.82607 3.16593 1.79484 3.2114C1.76361 3.25687 1.74695 3.31033 1.74696 3.36501V5.76348H0.568527V0.552763H5.92548V1.69909H3.4597C3.40351 1.6991 3.34858 1.71532 3.30186 1.74569C3.25513 1.77605 3.21871 1.81921 3.1972 1.86971C3.17569 1.92021 3.17006 1.97577 3.181 2.02938C3.19195 2.08299 3.21899 2.13225 3.25871 2.17091L5.19041 4.04957C5.24371 4.1014 5.31598 4.13051 5.39134 4.13051C5.4667 4.13051 5.53898 4.1014 5.59228 4.04957L6.25232 3.40824L7.30957 4.43592L6.64896 5.07792C6.59568 5.12976 6.56575 5.20006 6.56575 5.27336C6.56575 5.34666 6.59568 5.41696 6.64896 5.4688L7.46747 6.26494C7.51909 6.31518 7.5886 6.34418 7.66161 6.34591C7.73461 6.34764 7.8055 6.32197 7.85956 6.27423C8.97244 5.29196 10.4309 4.76335 11.9333 4.79774C13.4356 4.83214 14.8669 5.4269 15.931 6.459C15.9843 6.51075 16.0565 6.53982 16.1319 6.53982C16.2072 6.53982 16.2794 6.51075 16.3327 6.459L20.7413 2.17091C20.781 2.13225 20.808 2.08299 20.819 2.02938C20.8299 1.97577 20.8243 1.92021 20.8028 1.86971C20.7813 1.81921 20.7449 1.77605 20.6981 1.74569C20.6514 1.71532 20.5965 1.6991 20.5403 1.69909H18.0745V0.552873H23.4316V5.76348Z" fill="url(#paint0_linear)"/>
<path id="sexualOrientationcheck" d="M10.9294 13.4716C10.7586 13.4716 10.5896 13.4362 10.4339 13.3678C10.2781 13.2995 10.139 13.1997 10.0259 13.0751L8.30042 11.1732C8.19569 11.0578 8.11535 10.9234 8.06401 10.7778C8.01267 10.6321 7.99132 10.4781 8.00118 10.3244C8.02111 10.0141 8.16696 9.72417 8.40666 9.51843C8.64635 9.3127 8.96026 9.208 9.27932 9.22738C9.59838 9.24676 9.89645 9.38862 10.108 9.62176L10.923 10.5203L13.0686 8.11784C13.1718 7.99958 13.298 7.90242 13.4401 7.83197C13.5821 7.76153 13.7372 7.7192 13.8961 7.70745C14.0551 7.69571 14.2149 7.71476 14.3663 7.76352C14.5177 7.81229 14.6576 7.88978 14.7779 7.99152C14.8983 8.09326 14.9967 8.21721 15.0674 8.35621C15.1381 8.4952 15.1798 8.64647 15.19 8.80124C15.2002 8.95601 15.1787 9.11122 15.1268 9.25785C15.0749 9.40449 14.9936 9.53965 14.8875 9.65549L11.8392 13.0683C11.7266 13.1943 11.5876 13.2955 11.4316 13.3651C11.2755 13.4347 11.1059 13.471 10.9342 13.4716H10.9294ZM9.2034 9.77845C9.08103 9.77865 8.96131 9.81316 8.85858 9.87783C8.75585 9.9425 8.67446 10.0346 8.62415 10.1431C8.57384 10.2516 8.55675 10.3719 8.57492 10.4896C8.5931 10.6073 8.64576 10.7174 8.72662 10.8068L10.4521 12.7087C10.5119 12.7745 10.5854 12.8272 10.6677 12.8633C10.75 12.8994 10.8393 12.9181 10.9296 12.9181H10.9332C11.0238 12.9177 11.1133 12.8984 11.1956 12.8617C11.2779 12.8249 11.3513 12.7715 11.4107 12.7049L14.459 9.29225C14.5697 9.16828 14.6253 9.00658 14.6135 8.84272C14.6017 8.67887 14.5235 8.52629 14.396 8.41855C14.2686 8.3108 14.1023 8.25672 13.9339 8.2682C13.7654 8.27968 13.6085 8.35577 13.4978 8.47975L11.1391 11.1203C11.1125 11.15 11.0797 11.1739 11.0429 11.1903C11.0061 11.2067 10.9661 11.2152 10.9256 11.2154C10.8852 11.2147 10.8455 11.2061 10.8087 11.19C10.7718 11.1739 10.7388 11.1507 10.7115 11.1218L9.68144 9.98744C9.62162 9.92152 9.54804 9.86877 9.46561 9.8327C9.38318 9.79662 9.29379 9.77805 9.2034 9.77823V9.77845Z" fill="url(#paint1_linear)"/>
</g>
<defs>
<linearGradient id="paint0_linear" x1="12" y1="0" x2="12" y2="24" gradientUnits="userSpaceOnUse">
<stop offset="0.119792" stop-color="#FE4C69" stop-opacity="0.798235"/>
<stop offset="0.286458" stop-color="#FD297B"/>
<stop offset="1" stop-color="#FF655B" stop-opacity="0.65"/>
</linearGradient>
<linearGradient id="paint1_linear" x1="16.4271" y1="7.68494" x2="8.05833" y2="10.4173" gradientUnits="userSpaceOnUse">
<stop stop-color="#FD297B" stop-opacity="0"/>
<stop offset="0.573674" stop-color="#FF655B"/>
</linearGradient>
</defs>
</svg>
