<svg width="36" height="16" viewBox="0 0 36 16" fill="none" xmlns="http://www.w3.org/2000/svg">
<g id="tag-icon">
<g id="Group">
<g id="Group_2">
<path id="Vector" d="M31.6663 6.97242L26.751 0.956068C26.4013 0.528106 25.8547 0.276642 25.2745 0.276642H2.14948C1.12773 0.276642 0.299377 1.0421 0.299377 1.98627V14.0137C0.299377 14.9579 1.12773 15.7234 2.14948 15.7234H25.2661C25.8457 15.7234 26.3918 15.4725 26.7414 15.0453L31.6651 9.03311C32.1642 8.42368 32.1645 7.58214 31.6663 6.97242V6.97242ZM25.9682 9.81573C24.8829 9.81573 24.0031 9.00268 24.0031 7.99986C24.0031 6.99705 24.8829 6.184 25.9682 6.184C27.0534 6.184 27.9332 6.99705 27.9332 7.99986C27.9332 9.00268 27.0534 9.81573 25.9682 9.81573Z" fill="#FF655B"/>
</g>
<g id="Group_3">
<path id="Vector_2" d="M21.2471 1.99706L3.67683 1.98572C3.26849 1.98544 2.93709 2.29113 2.93679 2.66874L2.92841 13.331C2.92811 13.7086 3.25891 14.0148 3.66755 14.0148L21.2378 14.0262C21.6461 14.0265 21.9775 13.7208 21.9778 13.3432L21.9862 2.68091C21.9865 2.30358 21.6554 1.99734 21.2471 1.99706V1.99706Z" fill="url(#paint0_linear)"/>
</g>
<g id="Group_4">
<g id="Group_5">
<path id="Vector_3" d="M1.19748 14.0135V1.98627C1.19748 1.0421 2.02584 0.276642 3.04758 0.276642H2.14948C1.12773 0.276642 0.299377 1.0421 0.299377 1.98627V14.0137C0.299377 14.9579 1.12773 15.7234 2.14948 15.7234H3.04758C2.02584 15.7231 1.19748 14.9576 1.19748 14.0135V14.0135Z" fill="white"/>
</g>
</g>
<g id="Group_6">
<path id="Vector_4" d="M5.07938 4.8257H13.6003C13.7659 4.8257 13.8997 4.70177 13.8997 4.54906C13.8997 4.39636 13.7659 4.27242 13.6003 4.27242H5.07938C4.91383 4.27242 4.78001 4.39636 4.78001 4.54906C4.78001 4.70177 4.91383 4.8257 5.07938 4.8257V4.8257Z" fill="#FF655B"/>
<path id="Vector_5" d="M5.07938 8.28259H19.835C20.0005 8.28259 20.1343 8.15865 20.1343 8.00595C20.1343 7.85324 20.0005 7.72931 19.835 7.72931H5.07938C4.91383 7.72931 4.78001 7.85324 4.78001 8.00595C4.78001 8.15865 4.91383 8.28259 5.07938 8.28259V8.28259Z" fill="#FF655B"/>
<path id="Vector_6" d="M5.07938 11.7395H19.835C20.0005 11.7395 20.1343 11.6155 20.1343 11.4628C20.1343 11.3101 20.0005 11.1862 19.835 11.1862H5.07938C4.91383 11.1862 4.78001 11.3101 4.78001 11.4628C4.78001 11.6155 4.91383 11.7395 5.07938 11.7395V11.7395Z" fill="#FF655B"/>
<path id="Vector_7" d="M12.4624 15.4464H10.3854C10.2199 15.4464 10.086 15.5704 10.086 15.7231C10.086 15.8758 10.2199 15.9997 10.3854 15.9997H12.4624C12.628 15.9997 12.7618 15.8758 12.7618 15.7231C12.7618 15.5704 12.628 15.4464 12.4624 15.4464Z" fill="#FD297B"/>
<path id="Vector_8" d="M30.8419 5.12309C30.7389 5.12309 30.6377 5.12696 30.5365 5.13028L26.9896 0.789529C26.5857 0.295174 25.9448 0 25.2745 0H2.14977C0.964566 0 0 0.891056 0 1.98627V14.0137C0 15.1089 0.964566 16 2.14977 16H9.11309C9.27864 16 9.41246 15.8761 9.41246 15.7234C9.41246 15.5707 9.27864 15.4467 9.11309 15.4467H2.14977C1.29477 15.4467 0.598738 14.8038 0.598738 14.0137V1.98627C0.598738 1.19619 1.29447 0.553279 2.14977 0.553279H25.2745C25.758 0.553279 26.2205 0.766291 26.5121 1.12288L31.4274 7.13924C31.8433 7.64798 31.8427 8.35811 31.4262 8.8663L30.2617 10.2882C29.1804 10.2146 28.2071 9.94021 27.4922 9.54323C27.9461 9.16036 28.2329 8.61123 28.2329 8.00014C28.2329 6.84627 27.2168 5.90764 25.9684 5.90764C24.7201 5.90764 23.7037 6.846 23.7037 7.99986C23.7037 9.15372 24.7198 10.0924 25.9681 10.0924C26.3166 10.0924 26.6456 10.0171 26.9408 9.88654C27.6737 10.3554 28.678 10.6871 29.8345 10.8097L26.5028 14.8782C26.2109 15.2343 25.7487 15.4467 25.2658 15.4467H13.8281C13.6626 15.4467 13.5288 15.5707 13.5288 15.7234C13.5288 15.8761 13.6626 16 13.8281 16H25.2658C25.9349 16 26.5759 15.7057 26.9803 15.2121L30.5482 10.8553C30.6458 10.8584 30.7425 10.8634 30.8416 10.8634C33.7341 10.8634 36 9.60271 36 7.99322C36 6.38373 33.7344 5.12309 30.8419 5.12309V5.12309ZM27.6341 7.99986C27.6341 8.49173 27.3821 8.92937 26.9923 9.21154C26.5465 8.85468 26.2819 8.43695 26.2819 7.9935C26.2819 7.47148 26.6304 7.05956 26.977 6.77822C27.3755 7.05956 27.6341 7.50191 27.6341 7.99986V7.99986ZM24.3025 7.99986C24.3025 7.15113 25.0497 6.46064 25.9681 6.46064C26.1205 6.46064 26.2675 6.48139 26.4079 6.5168C25.9346 6.95831 25.6829 7.46152 25.6829 7.99322C25.6829 8.54263 25.9517 9.04943 26.4145 9.48127C26.272 9.51806 26.1226 9.53908 25.9678 9.53908C25.0497 9.53908 24.3025 8.84859 24.3025 7.99986V7.99986ZM30.9981 10.3059L31.9037 9.19992C32.4809 8.49532 32.4812 7.51076 31.9049 6.80561L30.9856 5.68024C33.3934 5.72063 35.4016 6.76218 35.4016 7.99322C35.4016 9.22233 33.4003 10.2619 30.9981 10.3059V10.3059Z" fill="#FD297B"/>
</g>
</g>
</g>
<defs>
<linearGradient id="paint0_linear" x1="12.4573" y1="1.98572" x2="12.4573" y2="14.0262" gradientUnits="userSpaceOnUse">
<stop stop-color="#FD297B"/>
<stop offset="1" stop-color="#FD297B"/>
</linearGradient>
</defs>
</svg>
