<svg width="28" height="36" viewBox="0 0 28 36" fill="none" xmlns="http://www.w3.org/2000/svg">
<path id="tinder-logo" d="M2.76989 32.2149C-1.34157 28.1966 -0.85389 21.6065 4.08593 14.3842C4.98429 13.0702 5.91532 11.8778 6.98635 10.6605L7.87771 9.65031L7.96638 10.5525C8.10172 11.9655 8.30006 12.7395 8.75041 13.6237C9.03275 14.1794 9.4971 14.7757 9.7001 14.9489C9.85411 15.0817 9.78177 15.1582 10.5611 14.7757C15.6923 12.0757 16.222 7.66812 15.9326 3.87922C15.8323 2.76775 15.578 1.52804 15.2629 0.616814C15.1416 0.265824 15.0716 -0.0109185 15.1089 0.000331191C15.1463 0.0115809 15.7856 0.594315 16.53 1.2963C23.6469 7.99436 27.497 15.0074 27.9963 22.1847C28.1527 30.4105 23.2899 34.7956 16.2126 35.7271C10.1738 36.6248 6.00166 35.2704 2.76989 32.2149Z" fill="url(#paint0_linear)"/>
<defs>
<linearGradient id="paint0_linear" x1="14" y1="0" x2="14" y2="36" gradientUnits="userSpaceOnUse">
<stop offset="0.213542" stop-color="#FF5722"/>
<stop offset="1" stop-color="#F7734A" stop-opacity="0.216"/>
</linearGradient>
</defs>
</svg>
