<svg width="16" height="24" viewBox="0 0 16 24" fill="none" xmlns="http://www.w3.org/2000/svg">
<g id="usernameicon">
<path id="user-name-vector" d="M13.6471 0H2.35294C1.05368 0.000619496 0.000551473 1.18365 0 2.64317V21.3568C0.000551473 22.8164 1.05368 23.9994 2.35294 24H13.6471C14.9463 23.9994 15.9994 22.8164 16 21.3568V2.64317C15.9994 1.18365 14.9463 0.000619496 13.6471 0ZM15.0588 21.3568C15.0566 22.2316 14.4257 22.9403 13.6471 22.9427H2.35294C1.57426 22.9403 0.943382 22.2316 0.941176 21.3568V2.64317C0.943382 1.76845 1.57426 1.05975 2.35294 1.05727H13.6471C14.4257 1.05975 15.0566 1.76845 15.0588 2.64317V21.3568Z" fill="url(#paint0_linear)"/>
<path id="icon-dash-vector" d="M9.80239 2.48996H6.03768C5.77775 2.48996 5.56709 2.72661 5.56709 3.01859C5.56709 3.31038 5.77775 3.54723 6.03768 3.54723H9.80239C10.0623 3.54723 10.273 3.31038 10.273 3.01859C10.273 2.72661 10.0623 2.48996 9.80239 2.48996Z" fill="url(#paint1_linear)"/>
<g id="person">
<path id="personhead" d="M8 12.7401C9.34375 12.7401 10.4329 11.5164 10.4329 10.0071C10.4329 8.49758 9.34375 7.27408 8 7.27408C6.65625 7.27408 5.56709 8.49758 5.56709 10.0071C5.56875 11.5155 6.65698 12.738 8 12.7401ZM8 8.33651C8.82389 8.33651 9.49173 9.08672 9.49173 10.0122C9.49173 10.9378 8.82389 11.6882 8 11.6882C7.1761 11.6882 6.50827 10.9378 6.50827 10.0122C6.50845 9.08692 7.17628 8.33692 8 8.33651Z" fill="#FD297B"/>
<path id="personbody" d="M7.99999 13.7499C7.00459 13.7416 6.04926 14.1903 5.35532 14.9922C4.64944 15.8008 4.2636 16.9004 4.2636 18.0952C4.26433 18.3868 4.47444 18.623 4.73418 18.6238H11.2658C11.5255 18.623 11.7357 18.3868 11.7364 18.0952C11.7364 16.9004 11.3505 15.8008 10.6447 14.9922C9.95073 14.1903 8.9954 13.7416 7.99999 13.7499V13.7499ZM5.23768 17.5666C5.31819 16.8754 5.59558 16.232 6.0283 15.7322C6.54907 15.1402 7.25918 14.8071 7.99999 14.8071C8.7408 14.8071 9.45091 15.1402 9.97168 15.7322C10.4035 16.2326 10.6807 16.8756 10.7623 17.5666H5.23768Z" fill="#FD297B"/>
</g>
</g>
<defs>
<linearGradient id="paint0_linear" x1="8" y1="0" x2="8" y2="24" gradientUnits="userSpaceOnUse">
<stop stop-color="#FD297B"/>
<stop offset="1" stop-color="#FF655B" stop-opacity="0.97"/>
</linearGradient>
<linearGradient id="paint1_linear" x1="7.92003" y1="2.48996" x2="7.92003" y2="3.54723" gradientUnits="userSpaceOnUse">
<stop stop-color="#FF655B" stop-opacity="0.91"/>
<stop offset="1" stop-color="#FD297B" stop-opacity="0.72"/>
</linearGradient>
</defs>
</svg>
